<?xml version="1.0" encoding="UTF-8"?>
<svg width="512px" height="512px" viewBox="0 0 512 512" version="1.1" xmlns="http://www.w3.org/2000/svg" xmlns:xlink="http://www.w3.org/1999/xlink" style="background: #FFFFFF;">
    <!-- Generator: Sketch 60.1 (88133) - https://sketch.com -->
    <title>eBike-pro AppIcon Android</title>
    <desc>Created with Sketch.</desc>
    <g id="AppIcon-Android" stroke="none" stroke-width="1" fill="none" fill-rule="evenodd">
        <rect fill="#FFFFFF" x="0" y="0" width="512" height="512"></rect>
        <g id="Windmill-Bike-AppIcon" fill="#3B0466" fill-rule="nonzero">
            <rect id="Rectangle" x="0" y="0" width="512" height="512"></rect>
        </g>
        <g id="Logo" transform="translate(111.000000, 110.000000)">
            <g id="Group-8" transform="translate(26.000000, 126.000000)" fill="#000000">
                <path d="M172.422186,4.9358129 C147.255276,4.9358129 126.778165,25.5817645 126.778165,50.9561839 C126.778165,76.3306032 147.255276,96.9740871 172.422186,96.9740871 C197.589096,96.9740871 218.063759,76.3306032 218.063759,50.9561839 C218.063759,25.5817645 197.589096,4.9358129 172.422186,4.9358129 M172.422186,101.880232 C144.570846,101.880232 121.909694,79.0322323 121.909694,50.9561839 C121.909694,22.8727323 144.570846,0.0247322581 172.422186,0.0247322581 C200.273526,0.0247322581 222.934677,22.8727323 222.934677,50.9561839 C222.934677,79.0347 200.273526,101.880232 172.422186,101.880232" id="Fill-4"></path>
                <path d="M50.7556159,4.9358129 C25.5887061,4.9358129 5.11404268,25.5817645 5.11404268,50.9561839 C5.11404268,76.3306032 25.5887061,96.9740871 50.7556159,96.9740871 C75.9252451,96.9740871 96.3996366,76.3306032 96.3996366,50.9561839 C96.3996366,25.5817645 75.9252451,4.9358129 50.7556159,4.9358129 M50.7556159,101.880232 C22.9045476,101.880232 0.24312439,79.0322323 0.24312439,50.9561839 C0.24312439,22.8727323 22.9045476,0.0247322581 50.7556159,0.0247322581 C78.6069561,0.0247322581 101.268107,22.8727323 101.268107,50.9561839 C101.268107,79.0347 78.6069561,101.880232 50.7556159,101.880232" id="Fill-6"></path>
            </g>
            <path d="M202,134.918048 C176.590198,134.918048 155.915458,155.593289 155.915458,181.003707 C155.915458,206.414124 176.590198,227.086895 202,227.086895 C227.409802,227.086895 248.082071,206.414124 248.082071,181.003707 C248.082071,155.593289 227.409802,134.918048 202,134.918048 M202,232 C173.87986,232 151,209.119586 151,181.003707 C151,152.880414 173.87986,130 202,130 C230.12014,130 253,152.880414 253,181.003707 C253,209.122057 230.12014,232 202,232" id="Fill-9" fill="#FFFFFF"></path>
            <path d="M80,134.918048 C54.5901982,134.918048 33.9179287,155.593289 33.9179287,181.003707 C33.9179287,206.414124 54.5901982,227.086895 80,227.086895 C105.412273,227.086895 126.084542,206.414124 126.084542,181.003707 C126.084542,155.593289 105.412273,134.918048 80,134.918048 M80,232 C51.8798596,232 29,209.119586 29,181.003707 C29,152.880414 51.8798596,130 80,130 C108.12014,130 131,152.880414 131,181.003707 C131,209.122057 108.12014,232 80,232" id="Fill-11" fill="#FFFFFF"></path>
            <polygon id="Fill-13" fill="#E5B900" points="132 171 124.511543 164.947698 104 145 111.488457 151.052302"></polygon>
            <polygon id="Fill-15" fill="#E5B900" points="112.60088 151 105 144.998768 184.39912 110 192 116.001232"></polygon>
            <polygon id="Fill-17" fill="#F6E71D" points="192.401444 117 226 145.774784 162.695543 170.137209 188.857153 196.181684 50 204 134.154664 170.063556 113.453485 150.903287"></polygon>
            <polygon id="Fill-19" fill="#E5B900" points="49.5813938 206 42 200.003774 126.418606 165 134 170.996226"></polygon>
            <path d="M169.001253,47.6341035 C158.873788,47.6341035 150.637166,55.8707256 150.637166,66.001253 C150.637166,76.1262116 158.873788,84.3628338 169.001253,84.3628338 C179.126212,84.3628338 187.365618,76.1262116 187.365618,66.001253 C187.365618,55.8737884 179.126212,47.6341035 169.001253,47.6341035 M169.001253,90 C155.767027,90 145,79.2326951 145,66.001253 C145,52.7695324 155.767027,42 169.001253,42 C182.232695,42 193,52.7695324 193,66.001253 C193,79.2326951 182.232695,90 169.001253,90" id="Fill-21" fill="#000000"></path>
            <path d="M137.196899,196 L131.906485,194.401367 C136.082538,180.615916 138.825139,166.341956 140.055608,151.986715 C140.380163,148.214202 140.564023,144.276943 138.984685,141.211964 C137.505063,138.341461 134.57587,136.316235 131.473745,134.172086 L130.110504,133.224526 C125.921064,130.272741 121.999082,126.905546 118.447825,123.208587 C113.360121,117.91845 111.315533,113.079455 112.199864,108.413387 C112.954701,104.411213 115.769971,101.449063 118.426243,99.0752522 C126.72972,91.6627869 136.766891,86.10562 147.455904,83 L149,88.3007746 C139.101066,91.174005 129.799608,96.3236718 122.112731,103.188167 C120.149281,104.940363 118.082564,107.054781 117.633705,109.431319 C117.106166,112.218086 118.67485,115.472086 122.431822,119.379614 C125.745127,122.825363 129.399105,125.963168 133.299231,128.712021 L134.619035,129.630124 C137.981241,131.952656 141.789574,134.588042 143.904647,138.687318 C146.151946,143.056625 145.94104,148.081641 145.565124,152.453676 C144.299413,167.192415 141.486328,181.84469 137.196899,196" id="Fill-23" fill="#000000"></path>
            <path d="M179.944454,144 C147.255283,137.638587 154.471421,135.90422 140,105.483183 L145.060069,103 C158.769954,131.833502 150.025745,132.370665 181,138.397549 L179.944454,144 Z" id="Fill-25" fill="#000000"></path>
            <path d="M172.001253,49.6343819 C161.873788,49.6343819 153.637166,57.871004 153.637166,68.001253 C153.637166,78.1262116 161.873788,86.3628338 172.001253,86.3628338 C182.126212,86.3628338 190.365618,78.1262116 190.365618,68.001253 C190.365618,57.8737884 182.126212,49.6343819 172.001253,49.6343819 M172.001253,92 C158.767027,92 148,81.2326951 148,68.001253 C148,54.7695324 158.767027,44 172.001253,44 C185.232695,44 196,54.7695324 196,68.001253 C196,81.2326951 185.232695,92 172.001253,92" id="Fill-27" fill="#FFFFFF"></path>
            <path d="M142.196626,197 L136.906486,195.401639 C141.082265,181.616189 143.824866,167.341956 145.055608,152.986715 C145.380163,149.214202 145.564023,145.276943 143.984412,142.212237 C142.505063,139.341461 139.57587,137.316508 136.473745,135.172086 L135.110504,134.224526 C130.920792,131.272741 126.99881,127.905546 123.447553,124.208587 C118.360122,118.91845 116.315534,114.079455 117.199865,109.413387 C117.954428,105.411485 120.769972,102.449063 123.42597,100.075252 C131.729721,92.6630597 141.766618,87.10562 152.455631,84 L154,89.3007746 C144.100793,92.1742777 134.799336,97.3239445 127.112458,104.188167 C125.149009,105.940635 123.082565,108.055054 122.633706,110.431319 C122.106167,113.218086 123.674851,116.472086 127.431823,120.379614 C130.744854,123.825363 134.399105,126.963168 138.299232,129.712021 L139.619035,130.630124 C142.980968,132.952656 146.789301,135.588042 148.904374,139.687318 C151.151946,144.056625 150.94104,149.081914 150.565124,153.453949 C149.29914,168.192415 146.486328,182.84469 142.196626,197" id="Fill-29" fill="#FFFFFF"></path>
            <path d="M183.944454,140 C151.255283,133.638587 158.471421,131.90422 144,101.482901 L149.060347,99 C162.769954,127.83322 154.025745,128.370383 185,134.397267 L183.944454,140 Z" id="Fill-31" fill="#FFFFFF"></path>
        </g>
    </g>
</svg>