<?xml version="1.0" encoding="UTF-8" standalone="no"?>
<svg width="22px" height="22px" viewBox="0 0 22 22" version="1.1" xmlns="http://www.w3.org/2000/svg" xmlns:xlink="http://www.w3.org/1999/xlink">
    <!-- Generator: Sketch 50.2 (55047) - http://www.bohemiancoding.com/sketch -->
    <title>ICGroup</title>
    <desc>Created with Sketch.</desc>
    <defs></defs>
    <g id="Symbols" stroke="none" stroke-width="1" fill="none" fill-rule="evenodd">
        <g id="Location-icon" transform="translate(-15.000000, -14.000000)" fill="#4A4A4A">
            <g id="Group" transform="translate(23.152543, 22.031223) rotate(-45.000000) translate(-23.152543, -22.031223) translate(14.652543, 11.031223)">
                <path d="M8.44974747,1.50509585 L1.06078504,20.74398 L8.33413803,18.6397724 C8.40955075,18.6179552 8.48994418,18.6179552 8.56535691,18.6397724 L15.8387099,20.74398 L8.44974747,1.50509585 Z M8.44974747,19.4164683 L0.518703504,21.7109482 C0.200672803,21.8029557 -0.0895130064,21.5048324 0.025807099,21.2045697 L8.07246051,0.253234001 C8.20213792,-0.0844113336 8.69735702,-0.0844113336 8.82703443,0.253234001 L16.8736878,21.2045697 C16.9890079,21.5048324 16.6988221,21.8029557 16.3807914,21.7109482 L8.44974747,19.4164683 Z" id="Rectangle" fill-rule="nonzero"></path>
                <polygon id="Rectangle" points="8.44974747 0 16.6164141 21 8.44974747 18.6666667"></polygon>
            </g>
        </g>
    </g>
</svg>