<?xml version="1.0" encoding="UTF-8"?>
<svg width="512px" height="512px" viewBox="0 0 512 512" version="1.1" xmlns="http://www.w3.org/2000/svg" xmlns:xlink="http://www.w3.org/1999/xlink">
    <!-- Generator: Sketch 60.1 (88133) - https://sketch.com -->
    <title>AppIcon Staging Android</title>
    <desc>Created with Sketch.</desc>
    <defs>
        <polygon id="path-1" points="0 88 88 88 88 0 0 0"></polygon>
    </defs>
    <g id="AppIcon-Staging-Android" stroke="none" stroke-width="1" fill="none" fill-rule="evenodd">
        <g id="Dev-3" transform="translate(0.000000, 322.000000)">
            <rect id="Rectangle" fill="#48B5C8" x="0" y="0" width="512" height="190"></rect>
            <path d="M218,60.0164616 L218,11 L228.642899,11 C233.944666,11 237.684425,12.2022414 239.862288,14.6067601 C242.040151,17.0112789 243.129067,20.7953829 243.129067,25.9591855 L243.129067,43.9929862 C243.129067,49.3735898 242.050006,53.389273 239.891852,56.0401564 C237.733697,58.6910398 234.151609,60.0164616 229.14548,60.0164616 L218,60.0164616 Z M224.829193,55.1089028 L228.672462,55.1089028 C229.717048,55.1089028 230.638438,55.0054312 231.43666,54.7984849 C232.234881,54.5915386 232.900056,54.3451776 233.432203,54.0593947 C233.964351,53.7736117 234.412728,53.3153804 234.777347,52.6846869 C235.141967,52.0539935 235.417891,51.4725817 235.605128,50.9404341 C235.792366,50.4082865 235.935255,49.6199315 236.033801,48.5753454 C236.132347,47.5307594 236.191473,46.6389328 236.211182,45.8998389 C236.230892,45.1607451 236.240746,44.0915386 236.240746,42.6921875 L236.240746,26.7574029 C236.240746,25.5748527 236.221037,24.5795545 236.181619,23.7714785 C236.1422,22.9634026 236.063365,22.1553387 235.94511,21.3472627 C235.826855,20.5391867 235.649475,19.8789394 235.412965,19.366501 C235.176455,18.8540626 234.870967,18.3662679 234.496493,17.9031024 C234.122019,17.4399369 233.65886,17.0851772 233.107004,16.8388125 C232.555147,16.5924479 231.904754,16.4002864 231.155805,16.2623222 C230.406857,16.124358 229.529812,16.0553769 228.524644,16.0553769 L224.829193,16.0553769 L224.829193,55.1089028 Z M255.161455,39.114991 L262.58192,39.114991 L262.58192,35.9516849 C262.58192,35.0253539 262.557284,34.2468534 262.508011,33.6161599 C262.458739,32.9854665 262.360194,32.3744914 262.212375,31.7832162 C262.064557,31.1919411 261.862541,30.7287826 261.606321,30.3937267 C261.350102,30.0586708 261.00027,29.792601 260.556813,29.5955093 C260.113357,29.3984176 259.57629,29.2998732 258.945597,29.2998732 C257.408281,29.2998732 256.393274,29.8517217 255.900545,30.9554352 C255.407816,32.0591488 255.161455,34.1482895 255.161455,37.2229201 L255.161455,39.114991 Z M259.034288,60.519043 C256.984534,60.519043 255.279716,60.2283371 253.919783,59.6469165 C252.559851,59.065496 251.500499,58.1588878 250.741696,56.9270646 C249.982893,55.6952415 249.450753,54.2564936 249.145261,52.6107779 C248.839769,50.9650622 248.687025,48.9399753 248.687025,46.5354565 L248.687025,38.5237188 C248.687025,36.0994909 248.849623,34.0546951 249.174824,32.3892702 C249.500026,30.7238453 250.046947,29.2850974 250.815605,28.0729835 C251.584262,26.8608695 252.643614,25.9690429 253.993692,25.397477 C255.343771,24.825911 257.014098,24.5401323 259.004724,24.5401323 C260.246402,24.5401323 261.350099,24.6583856 262.315848,24.8948956 C263.281597,25.1314057 264.114297,25.4566021 264.813973,25.8704947 C265.513648,26.2843873 266.109842,26.841163 266.602571,27.5408385 C267.0953,28.2405141 267.494405,28.9795969 267.799897,29.7581091 C268.105389,30.5366213 268.346823,31.4826473 268.524206,32.5962155 C268.701588,33.7097836 268.819841,34.8184078 268.878969,35.9221213 C268.938096,37.0258349 268.96766,38.3167662 268.96766,39.7949539 L268.938096,42.6330603 L255.161455,42.6330603 L255.161455,47.6884372 C255.161455,48.6738957 255.166382,49.4031241 255.176237,49.8761442 C255.186091,50.3491643 255.225509,50.9650666 255.294491,51.7238697 C255.363473,52.4826727 255.476799,53.0493029 255.634473,53.4237771 C255.792146,53.7982513 256.008944,54.1924288 256.284872,54.6063214 C256.5608,55.020214 256.920487,55.3109199 257.363944,55.4784478 C257.8074,55.6459758 258.344467,55.7297385 258.97516,55.7297385 C260.374511,55.7297385 261.325465,55.2517983 261.828048,54.2959035 C262.330632,53.3400088 262.58192,51.8963337 262.58192,49.964835 L262.58192,47.8362552 L268.908533,47.8362552 L268.908533,49.1961812 C268.908533,56.7447935 265.61715,60.519043 259.034288,60.519043 Z M279.37405,60.0164616 L272.456165,25.0131501 L278.960159,25.0131501 L283.276446,53.1872682 L287.622296,25.0131501 L293.919345,25.0131501 L287.297097,60.0164616 L279.37405,60.0164616 Z" id="Dev" fill-opacity="0.656901042" fill="#000000"></path>
        </g>
        <g id="AppIcon-Android">
            <g id="Group-3">
                <polygon id="Fill-1" fill="#0E0E10" points="0 512 512 512 512 0 0 0"></polygon>
                <g id="Group-4" transform="translate(144.000000, 137.000000)" fill="#FFFFFE">
                    <polygon id="Fill-2" points="0 8.4076087 0 229.592391 19.3179225 229.592391 19.3179225 222.739449 6.81540298 222.739449 6.81540298 15.2605509 213.157769 15.2605509 213.157769 222.739449 156.701972 222.739449 156.701972 229.592391 219.973172 229.592391 219.973172 8.4076087"></polygon>
                    <path d="M63.4753875,226.477979 C59.5109732,230.084416 53.8036149,231.565233 47.9437792,231.083289 C37.0552003,230.186958 28.3085381,221.331613 27.5340972,210.42484 C26.6065762,197.363494 36.9617852,186.438625 49.8187097,186.438625 C62.1380455,186.438625 72.1605765,196.469575 72.1605765,208.799259 C72.1605765,208.990469 72.1509337,209.178662 72.1461122,209.369268 L78.4338492,203.096758 C77.7606582,199.6948 76.4950349,196.506369 74.7520908,193.640642 L87.5595957,193.640642 L94.4602559,186.734185 L71.7682333,186.734185 L66.8588204,181.15594 L66.8588204,173.228292 L72.0496838,173.228292 C72.9928745,173.228292 73.7582752,172.462852 73.7582752,171.518869 L73.7582752,169.809446 C73.7582752,168.864256 72.9928745,168.099419 72.0496838,168.099419 L52.6422549,168.099419 C51.6990642,168.099419 50.9342662,168.864256 50.9342662,169.809446 L50.9342662,171.518869 C50.9342662,172.462852 51.6990642,173.228292 52.6422549,173.228292 L60.0907492,173.228292 L60.0907492,181.465373 C56.453589,180.094939 52.4722998,179.426008 48.3083992,179.637726 C33.3053393,180.398341 21.1897085,192.71958 20.6611602,207.745497 C20.0777681,224.352962 33.3553616,238 49.8187097,238 C57.777672,238 64.0648063,235.350213 70.2494854,229.634441 C76.4341644,223.919273 109.587467,193.282954 109.587467,193.282954 C110.169654,192.680976 112.967284,190.385861 113.77668,189.874361 L122.713789,210.226393 C123.263431,211.477396 124.473608,212.363474 125.838673,212.36649 C128.270478,212.372521 129.902529,209.87534 128.925588,207.648987 L119.939663,187.185367 C121.761558,186.70282 123.672046,186.438625 125.644611,186.438625 C138.491892,186.438625 148.841075,197.347811 147.930429,210.397094 C147.161412,221.411837 138.246602,230.334738 127.240501,231.103797 C114.202171,232.015812 103.302141,221.657333 103.302141,208.798656 C103.302141,208.445794 103.312989,208.095344 103.329262,207.7461 L96.8727749,213.624128 C99.1713879,227.453328 111.174318,238 125.644611,238 C142.405682,238 155.865886,223.852922 154.755754,206.838911 C153.830041,192.647801 142.569007,181.05943 128.421147,179.730013 C124.475416,179.359055 120.679751,179.790934 117.161921,180.859173 L113.474136,172.462249 C113.101681,171.614775 113.722439,170.664157 114.64755,170.664157 L120.602006,170.664157 L123.283922,166.218691 C123.970975,165.079277 123.151333,163.625 121.821223,163.625 L105.341603,163.625 L105.341603,170.664157 L110.998939,183.548168 L63.4753875,226.477979 Z" id="Fill-40"></path>
                </g>
                <g id="Group-2" transform="translate(285.000000, 137.000000)">
                    <mask id="mask-2" fill="white">
                        <use xlink:href="#path-1"></use>
                    </mask>
                    <g id="Mask"></g>
                    <g mask="url(#mask-2)" stroke="#FEFEFE" stroke-linecap="square" stroke-width="6">
                        <g transform="translate(-98.202899, -3.188406)">
                            <line x1="0.128962725" y1="94.3337565" x2="102.310429" y2="1.13686838e-13" id="Line-Copy-4"></line>
                            <line x1="15.3035767" y1="94.3337565" x2="117.485043" y2="1.13686838e-13" id="Line-Copy-5"></line>
                            <line x1="30.4781908" y1="94.3337565" x2="132.659657" y2="1.13686838e-13" id="Line-Copy-6"></line>
                            <line x1="45.6528048" y1="94.3337565" x2="147.834271" y2="1.13686838e-13" id="Line-Copy-7"></line>
                            <line x1="60.8274188" y1="94.3337565" x2="163.008885" y2="1.13686838e-13" id="Line-Copy-8"></line>
                            <line x1="76.0020328" y1="94.3337565" x2="178.183499" y2="1.13686838e-13" id="Line-Copy-9"></line>
                            <line x1="91.1766469" y1="94.3337565" x2="193.358113" y2="1.13686838e-13" id="Line-Copy-10"></line>
                            <line x1="106.351261" y1="94.3337565" x2="208.532727" y2="1.13686838e-13" id="Line-Copy-11"></line>
                            <line x1="121.525875" y1="94.3337565" x2="223.707341" y2="1.13686838e-13" id="Line-Copy-12"></line>
                            <line x1="136.700489" y1="94.3337565" x2="238.881955" y2="1.13686838e-13" id="Line-Copy-13"></line>
                            <line x1="151.875103" y1="94.3337565" x2="254.056569" y2="1.13686838e-13" id="Line-Copy-14"></line>
                            <line x1="167.049717" y1="94.3337565" x2="269.231183" y2="1.13686838e-13" id="Line-Copy-15"></line>
                            <line x1="182.224331" y1="94.3337565" x2="284.405797" y2="1.13686838e-13" id="Line-Copy-16"></line>
                        </g>
                    </g>
                </g>
            </g>
        </g>
        <g id="Staging" transform="translate(0.000000, 322.000000)">
            <polygon id="Rectangle" fill="#E7A10F" points="0 0 512 0 512 190 0 190"></polygon>
            <path d="M181.981987,72.6478054 C177.564376,72.6478054 174.198376,71.284496 171.883885,68.5578363 C169.569395,65.8311767 168.27478,62.1005704 168,57.3659055 L174.531268,55.5904151 C174.99628,63.1151503 177.479828,66.8774615 181.981987,66.8774615 C183.863171,66.8774615 185.295174,66.3543311 186.27804,65.3080547 C187.260906,64.2617783 187.752331,62.7240922 187.752331,60.6949501 C187.752331,59.5746946 187.620228,58.5495705 187.356016,57.619547 C187.091805,56.6895236 186.658505,55.8017872 186.056104,54.9563114 C185.453702,54.1108355 184.883014,53.4080442 184.344024,52.8479165 C183.805033,52.2877887 183.038832,51.5427243 182.045398,50.6127008 L173.231356,42.7815198 C171.455856,41.1751156 170.161241,39.4789051 169.34747,37.6928374 C168.5337,35.9067696 168.126821,33.7244178 168.126821,31.1457164 C168.126821,27.341075 169.231207,24.3766697 171.440013,22.2524116 C173.648818,20.1281535 176.666065,19.0449038 180.491843,19.00263 C184.698086,18.9392193 187.847436,20.022469 189.939989,22.2524116 C192.032542,24.4823542 193.290168,27.9329008 193.712906,32.6041549 L187.530395,34.316235 C187.445847,33.1748426 187.329596,32.1602868 187.181638,31.2725371 C187.03368,30.3847875 186.790609,29.491767 186.452418,28.5934489 C186.114228,27.6951308 185.702065,26.9659188 185.215916,26.405791 C184.729768,25.8456632 184.085102,25.4017951 183.2819,25.0741732 C182.478698,24.7465513 181.548688,24.6144477 180.491843,24.6778583 C176.623791,24.952638 174.689794,26.8760667 174.689794,30.4482023 C174.689794,31.9911957 174.954002,33.2805271 175.482424,34.316235 C176.010846,35.3519429 176.898583,36.4404768 178.14566,37.5818692 L187.023112,45.4130503 C189.327034,47.4844661 191.160632,49.703807 192.523962,52.0711394 C193.887292,54.4384718 194.568946,57.1228174 194.568946,60.1242568 C194.568946,63.9711719 193.406434,67.0201235 191.081376,69.271203 C188.756317,71.5222825 185.723218,72.6478054 181.981987,72.6478054 Z M209.724025,72.6161002 C206.870544,72.6161002 204.815012,71.8657516 203.557367,70.365032 C202.299721,68.8643123 201.649771,66.6238349 201.607498,63.6435324 L201.607498,39.1671285 L197.676054,39.1671285 L197.676054,34.5381713 L201.607498,34.5381713 L201.607498,23.599882 L208.550933,23.599882 L208.550933,34.5381713 L214.574919,34.5381713 L214.574919,39.1671285 L208.550933,39.1671285 L208.550933,63.1679546 C208.550933,64.6686743 208.78872,65.7255033 209.2643,66.3384733 C209.73988,66.9514433 210.643469,67.2579237 211.975094,67.2579237 C212.968528,67.2579237 213.824559,67.2050822 214.543214,67.0993978 L214.543214,72.235638 C212.514072,72.4892807 210.907692,72.6161002 209.724025,72.6161002 Z M229.222715,66.5921148 C230.110465,66.5921148 230.982349,66.2433612 231.838393,65.5458436 C232.694437,64.848326 233.333819,64.1613872 233.756557,63.4850065 L233.756557,52.8637691 C231.325814,54.2376673 229.719433,55.2522232 228.937368,55.907467 C226.908226,57.5561449 225.89367,59.5112785 225.89367,61.7729264 C225.89367,63.294783 226.179014,64.4784315 226.74971,65.3239073 C227.320407,66.1693832 228.144733,66.5921148 229.222715,66.5921148 Z M226.464364,72.6161002 C224.329537,72.6161002 222.538212,71.733648 221.090335,69.9687171 C219.642457,68.2037863 218.918529,66.1799588 218.918529,63.8971739 C218.918529,62.1216746 219.209157,60.5100104 219.790422,59.062133 C220.371687,57.6142556 220.989932,56.4464596 221.645175,55.5587099 C222.300419,54.6709602 223.43651,53.7462349 225.053483,52.7845061 C226.670456,51.8227773 227.922798,51.1411226 228.810548,50.7395216 C229.698297,50.3379205 231.251836,49.6826866 233.47121,48.7738 C233.598031,48.7103893 233.693146,48.6681162 233.756557,48.6469793 L233.756557,45.9520384 C233.756557,43.5212953 233.508202,41.7933799 233.011485,40.7682404 C232.514768,39.743101 231.505496,39.2305389 229.983639,39.2305389 C227.362664,39.2305389 226.052196,41.0060116 226.052196,44.5570102 L226.052196,46.4276162 L219.172171,46.1739747 C219.172171,45.7935106 219.193307,45.3285058 219.235581,44.7789465 C219.44695,41.0377158 220.493211,38.3110971 222.374395,36.5990084 C224.255578,34.8869198 226.950492,34.0308883 230.459217,34.0308883 C234.073627,34.0308883 236.683994,35.0190234 238.290398,36.9953233 C239.896802,38.9716231 240.699992,41.9465967 240.699992,45.9203332 L240.699992,63.0728391 C240.699992,65.9051832 240.911358,68.9065775 241.334096,72.077112 L234.993059,72.077112 C234.549184,69.9845593 234.242704,68.1351085 234.073608,66.5287044 C233.545186,68.2196561 232.641597,69.6569435 231.362815,70.8406098 C230.084033,72.024276 228.451232,72.6161002 226.464364,72.6161002 Z M257.281805,55.6855307 C259.120715,55.6855307 260.330784,55.0355808 260.912049,53.7356617 C261.493313,52.4357425 261.783941,50.3168004 261.783941,47.3787718 C261.783941,46.2162425 261.757521,45.2439598 261.704678,44.4618947 C261.651836,43.6798295 261.535585,42.9083443 261.355921,42.1474161 C261.176258,41.3864878 260.927903,40.7840953 260.61085,40.3402204 C260.293796,39.8963456 259.86578,39.5370237 259.326789,39.2622441 C258.787799,38.9874644 258.137849,38.8500767 257.37692,38.8500767 C255.559147,38.8500767 254.33851,39.5264472 253.714971,40.8792086 C253.091433,42.23197 252.779668,44.3984694 252.779668,47.3787718 C252.779668,48.4144797 252.811373,49.3127844 252.874784,50.0737127 C252.938195,50.8346409 253.065014,51.5849895 253.255246,52.3247809 C253.445478,53.0645723 253.704401,53.6669648 254.032023,54.1319765 C254.359645,54.5969882 254.792945,54.9721625 255.331936,55.2575106 C255.870927,55.5428587 256.520877,55.6855307 257.281805,55.6855307 Z M258.96218,78.2279182 C260.970185,78.2279182 262.45503,77.9320061 263.416759,77.340173 C264.378487,76.7483399 264.859344,75.8077621 264.859344,74.5184114 C264.859344,73.3347452 264.494738,72.4470088 263.765516,71.8551757 C263.036293,71.2633426 261.688836,70.8723159 259.723104,70.6820838 L253.794234,70.206506 C253.181264,70.7137915 252.568304,71.4060145 251.955334,72.2831957 C251.342364,73.1603769 251.035883,74.0956706 251.035883,75.0891047 C251.035883,75.850033 251.215544,76.4418572 251.574871,76.8645952 C251.934199,77.2873331 252.7004,77.6202342 253.873497,77.8633085 C255.046595,78.1063829 256.742806,78.2279182 258.96218,78.2279182 Z M259.057295,83.7129154 C257.704534,83.7129154 256.520886,83.6917789 255.506314,83.6495051 C254.491743,83.6072313 253.413778,83.5174008 252.272385,83.380011 C251.130993,83.2426212 250.163995,83.0418237 249.371361,82.7776124 C248.578727,82.5134012 247.844231,82.1699318 247.16785,81.7471939 C246.49147,81.324456 245.984192,80.7907573 245.646002,80.146082 C245.307811,79.5014066 245.138719,78.7457739 245.138719,77.8791611 C245.138719,75.9345667 245.651281,74.2542086 246.67642,72.8380365 C247.70156,71.4218644 248.996175,70.2910574 250.560305,69.4455816 C249.376639,69.0862543 248.47305,68.5419874 247.849512,67.8127645 C247.225974,67.0835415 246.914209,66.2750674 246.914209,65.3873177 C246.914209,64.097967 247.241826,62.96716 247.89707,61.9948627 C248.552314,61.0225655 249.619711,59.8917585 251.099294,58.6024078 C249.619711,57.4610154 248.525893,56.0290121 247.817807,54.306355 C247.109721,52.583698 246.755683,50.2745267 246.755683,47.3787718 C246.755683,43.0034342 247.643419,39.6849912 249.418919,37.4233433 C251.194418,35.1616953 253.815354,34.0308883 257.281805,34.0308883 C261.107583,34.0308883 263.686246,35.404766 265.01787,38.1525626 C265.334924,37.7086877 265.97959,37.0798745 266.951887,36.266104 C267.924184,35.4523335 268.970445,34.7918153 270.0907,34.2845298 L271.168677,33.808952 L272.880757,38.3110885 C272.035281,38.5013206 270.846348,38.8764949 269.313923,39.4366226 C267.781498,39.9967504 266.846205,40.4141978 266.508014,40.6889775 C266.825068,41.4499058 267.099843,42.5225872 267.332349,43.9070539 C267.564855,45.2915206 267.681106,46.5227264 267.681106,47.6007081 C267.681106,49.5875764 267.506729,51.3471966 267.157971,52.8796217 C266.809212,54.4120467 266.243808,55.7700719 265.461743,56.9537381 C264.679678,58.1374043 263.601712,59.0409931 262.227814,59.6645315 C260.853916,60.28807 259.205263,60.5998345 257.281805,60.5998345 C256.922478,60.5998345 256.277812,60.5311407 255.347789,60.3937508 C254.417765,60.256361 253.878782,60.1665305 253.730824,60.1242568 C253.709687,60.1665305 253.614573,60.3250549 253.445477,60.5998345 C253.276382,60.8746142 253.160131,61.0754117 253.09672,61.2022331 C253.03331,61.3290545 252.943479,61.5139995 252.827226,61.7570739 C252.710973,62.0001482 252.626427,62.2220822 252.573585,62.4228828 C252.520743,62.6236833 252.494322,62.8191966 252.494322,63.0094287 C252.494322,63.4955773 252.742677,63.8654675 253.239394,64.1191102 C253.736111,64.372753 254.534017,64.5524139 255.633135,64.6580984 C255.73882,64.6792353 256.726955,64.7743499 258.59757,64.9434451 C260.468186,65.1125403 261.424616,65.1970866 261.46689,65.1970866 C267.258399,65.7466459 270.154111,68.7903133 270.154111,74.3281803 C270.154111,77.6889468 269.26109,80.0932328 267.475022,81.5411102 C265.688955,82.9889876 262.883074,83.7129154 259.057295,83.7129154 Z M276.08298,28.9897637 L276.08298,21.6975708 L283.058121,21.6975708 L283.058121,28.9897637 L276.08298,28.9897637 Z M276.08298,72.077112 L276.08298,34.5381713 L283.026416,34.5381713 L283.026416,72.077112 L276.08298,72.077112 Z M290.477135,72.077112 L290.477135,34.5381713 L297.420571,34.5381713 L297.420571,38.2476781 C300.379736,35.4364709 303.433972,34.0308883 306.58337,34.0308883 C307.640215,34.0308883 308.554372,34.2528224 309.325868,34.6966972 C310.097365,35.1405721 310.683905,35.7482487 311.085506,36.5197455 C311.487107,37.2912422 311.772451,38.0997164 311.941546,38.9451922 C312.110641,39.7906681 312.195188,40.7101093 312.195188,41.7035434 L312.195188,72.077112 L305.251752,72.077112 L305.251752,43.7326754 C305.251752,42.2953664 305.040386,41.2279691 304.617648,40.5304515 C304.19491,39.832934 303.412857,39.4841804 302.271464,39.4841804 C300.876429,39.4841804 299.259481,40.2556656 297.420571,41.798659 L297.420571,72.077112 L290.477135,72.077112 Z M328.903821,55.6855307 C330.742731,55.6855307 331.9528,55.0355808 332.534065,53.7356617 C333.11533,52.4357425 333.405958,50.3168004 333.405958,47.3787718 C333.405958,46.2162425 333.379537,45.2439598 333.326695,44.4618947 C333.273852,43.6798295 333.157601,42.9083443 332.977937,42.1474161 C332.798274,41.3864878 332.549919,40.7840953 332.232866,40.3402204 C331.915812,39.8963456 331.487796,39.5370237 330.948806,39.2622441 C330.409815,38.9874644 329.759865,38.8500767 328.998937,38.8500767 C327.181163,38.8500767 325.960526,39.5264472 325.336988,40.8792086 C324.713449,42.23197 324.401685,44.3984694 324.401685,47.3787718 C324.401685,48.4144797 324.433389,49.3127844 324.4968,50.0737127 C324.560211,50.8346409 324.68703,51.5849895 324.877262,52.3247809 C325.067494,53.0645723 325.326418,53.6669648 325.654039,54.1319765 C325.981661,54.5969882 326.414961,54.9721625 326.953952,55.2575106 C327.492943,55.5428587 328.142893,55.6855307 328.903821,55.6855307 Z M330.584196,78.2279182 C332.592201,78.2279182 334.077046,77.9320061 335.038775,77.340173 C336.000503,76.7483399 336.481361,75.8077621 336.481361,74.5184114 C336.481361,73.3347452 336.116755,72.4470088 335.387532,71.8551757 C334.658309,71.2633426 333.310852,70.8723159 331.34512,70.6820838 L325.416251,70.206506 C324.803281,70.7137915 324.19032,71.4060145 323.57735,72.2831957 C322.96438,73.1603769 322.657899,74.0956706 322.657899,75.0891047 C322.657899,75.850033 322.83756,76.4418572 323.196887,76.8645952 C323.556215,77.2873331 324.322416,77.6202342 325.495514,77.8633085 C326.668611,78.1063829 328.364822,78.2279182 330.584196,78.2279182 Z M330.679311,83.7129154 C329.32655,83.7129154 328.142902,83.6917789 327.128331,83.6495051 C326.11376,83.6072313 325.035794,83.5174008 323.894402,83.380011 C322.753009,83.2426212 321.786011,83.0418237 320.993377,82.7776124 C320.200743,82.5134012 319.466247,82.1699318 318.789867,81.7471939 C318.113486,81.324456 317.606208,80.7907573 317.268018,80.146082 C316.929827,79.5014066 316.760735,78.7457739 316.760735,77.8791611 C316.760735,75.9345667 317.273297,74.2542086 318.298436,72.8380365 C319.323576,71.4218644 320.618191,70.2910574 322.182322,69.4455816 C320.998655,69.0862543 320.095067,68.5419874 319.471528,67.8127645 C318.84799,67.0835415 318.536225,66.2750674 318.536225,65.3873177 C318.536225,64.097967 318.863842,62.96716 319.519086,61.9948627 C320.17433,61.0225655 321.241727,59.8917585 322.72131,58.6024078 C321.241727,57.4610154 320.147909,56.0290121 319.439823,54.306355 C318.731737,52.583698 318.377699,50.2745267 318.377699,47.3787718 C318.377699,43.0034342 319.265435,39.6849912 321.040935,37.4233433 C322.816434,35.1616953 325.43737,34.0308883 328.903821,34.0308883 C332.729599,34.0308883 335.308262,35.404766 336.639887,38.1525626 C336.95694,37.7086877 337.601606,37.0798745 338.573903,36.266104 C339.5462,35.4523335 340.592461,34.7918153 341.712716,34.2845298 L342.790693,33.808952 L344.502773,38.3110885 C343.657297,38.5013206 342.468364,38.8764949 340.935939,39.4366226 C339.403514,39.9967504 338.468221,40.4141978 338.13003,40.6889775 C338.447084,41.4499058 338.721859,42.5225872 338.954365,43.9070539 C339.186871,45.2915206 339.303122,46.5227264 339.303122,47.6007081 C339.303122,49.5875764 339.128745,51.3471966 338.779987,52.8796217 C338.431228,54.4120467 337.865824,55.7700719 337.083759,56.9537381 C336.301694,58.1374043 335.223728,59.0409931 333.84983,59.6645315 C332.475932,60.28807 330.827279,60.5998345 328.903821,60.5998345 C328.544494,60.5998345 327.899828,60.5311407 326.969805,60.3937508 C326.039781,60.256361 325.500798,60.1665305 325.35284,60.1242568 C325.331703,60.1665305 325.236589,60.3250549 325.067493,60.5998345 C324.898398,60.8746142 324.782147,61.0754117 324.718736,61.2022331 C324.655326,61.3290545 324.565495,61.5139995 324.449242,61.7570739 C324.332989,62.0001482 324.248443,62.2220822 324.195601,62.4228828 C324.142759,62.6236833 324.116338,62.8191966 324.116338,63.0094287 C324.116338,63.4955773 324.364693,63.8654675 324.86141,64.1191102 C325.358127,64.372753 326.156033,64.5524139 327.255151,64.6580984 C327.360836,64.6792353 328.348971,64.7743499 330.219586,64.9434451 C332.090202,65.1125403 333.046632,65.1970866 333.088906,65.1970866 C338.880415,65.7466459 341.776127,68.7903133 341.776127,74.3281803 C341.776127,77.6889468 340.883106,80.0932328 339.097038,81.5411102 C337.310971,82.9889876 334.50509,83.7129154 330.679311,83.7129154 Z" fill-opacity="0.656901042" fill="#000000"></path>
        </g>
    </g>
</svg>