<?xml version="1.0" encoding="UTF-8"?>
<svg width="512px" height="512px" viewBox="0 0 512 512" version="1.1" xmlns="http://www.w3.org/2000/svg" xmlns:xlink="http://www.w3.org/1999/xlink" style="background: #FFFFFF;">
    <!-- Generator: Sketch 60.1 (88133) - https://sketch.com -->
    <title>AppIcon Android</title>
    <desc>Created with Sketch.</desc>
    <defs>
        <polygon id="path-1" points="0 88 88 88 88 0 0 0"></polygon>
    </defs>
    <g id="AppIcon-Android" stroke="none" stroke-width="1" fill="none" fill-rule="evenodd">
        <rect fill="#FFFFFF" x="0" y="0" width="512" height="512"></rect>
        <g id="Group-3">
            <polygon id="Fill-1" fill="#0E0E10" points="0 512 512 512 512 0 0 0"></polygon>
            <g id="Group-4" transform="translate(144.000000, 137.000000)" fill="#FFFFFE">
                <polygon id="Fill-2" points="0 8.4076087 0 229.592391 19.3179225 229.592391 19.3179225 222.739449 6.81540298 222.739449 6.81540298 15.2605509 213.157769 15.2605509 213.157769 222.739449 156.701972 222.739449 156.701972 229.592391 219.973172 229.592391 219.973172 8.4076087"></polygon>
                <path d="M63.4753875,226.477979 C59.5109732,230.084416 53.8036149,231.565233 47.9437792,231.083289 C37.0552003,230.186958 28.3085381,221.331613 27.5340972,210.42484 C26.6065762,197.363494 36.9617852,186.438625 49.8187097,186.438625 C62.1380455,186.438625 72.1605765,196.469575 72.1605765,208.799259 C72.1605765,208.990469 72.1509337,209.178662 72.1461122,209.369268 L78.4338492,203.096758 C77.7606582,199.6948 76.4950349,196.506369 74.7520908,193.640642 L87.5595957,193.640642 L94.4602559,186.734185 L71.7682333,186.734185 L66.8588204,181.15594 L66.8588204,173.228292 L72.0496838,173.228292 C72.9928745,173.228292 73.7582752,172.462852 73.7582752,171.518869 L73.7582752,169.809446 C73.7582752,168.864256 72.9928745,168.099419 72.0496838,168.099419 L52.6422549,168.099419 C51.6990642,168.099419 50.9342662,168.864256 50.9342662,169.809446 L50.9342662,171.518869 C50.9342662,172.462852 51.6990642,173.228292 52.6422549,173.228292 L60.0907492,173.228292 L60.0907492,181.465373 C56.453589,180.094939 52.4722998,179.426008 48.3083992,179.637726 C33.3053393,180.398341 21.1897085,192.71958 20.6611602,207.745497 C20.0777681,224.352962 33.3553616,238 49.8187097,238 C57.777672,238 64.0648063,235.350213 70.2494854,229.634441 C76.4341644,223.919273 109.587467,193.282954 109.587467,193.282954 C110.169654,192.680976 112.967284,190.385861 113.77668,189.874361 L122.713789,210.226393 C123.263431,211.477396 124.473608,212.363474 125.838673,212.36649 C128.270478,212.372521 129.902529,209.87534 128.925588,207.648987 L119.939663,187.185367 C121.761558,186.70282 123.672046,186.438625 125.644611,186.438625 C138.491892,186.438625 148.841075,197.347811 147.930429,210.397094 C147.161412,221.411837 138.246602,230.334738 127.240501,231.103797 C114.202171,232.015812 103.302141,221.657333 103.302141,208.798656 C103.302141,208.445794 103.312989,208.095344 103.329262,207.7461 L96.8727749,213.624128 C99.1713879,227.453328 111.174318,238 125.644611,238 C142.405682,238 155.865886,223.852922 154.755754,206.838911 C153.830041,192.647801 142.569007,181.05943 128.421147,179.730013 C124.475416,179.359055 120.679751,179.790934 117.161921,180.859173 L113.474136,172.462249 C113.101681,171.614775 113.722439,170.664157 114.64755,170.664157 L120.602006,170.664157 L123.283922,166.218691 C123.970975,165.079277 123.151333,163.625 121.821223,163.625 L105.341603,163.625 L105.341603,170.664157 L110.998939,183.548168 L63.4753875,226.477979 Z" id="Fill-40"></path>
            </g>
            <g id="Group-2" transform="translate(285.000000, 137.000000)">
                <mask id="mask-2" fill="white">
                    <use xlink:href="#path-1"></use>
                </mask>
                <g id="Mask"></g>
                <g mask="url(#mask-2)" stroke="#FEFEFE" stroke-linecap="square" stroke-width="6">
                    <g transform="translate(-98.202899, -3.188406)">
                        <line x1="0.128962725" y1="94.3337565" x2="102.310429" y2="1.13686838e-13" id="Line-Copy-4"></line>
                        <line x1="15.3035767" y1="94.3337565" x2="117.485043" y2="1.13686838e-13" id="Line-Copy-5"></line>
                        <line x1="30.4781908" y1="94.3337565" x2="132.659657" y2="1.13686838e-13" id="Line-Copy-6"></line>
                        <line x1="45.6528048" y1="94.3337565" x2="147.834271" y2="1.13686838e-13" id="Line-Copy-7"></line>
                        <line x1="60.8274188" y1="94.3337565" x2="163.008885" y2="1.13686838e-13" id="Line-Copy-8"></line>
                        <line x1="76.0020328" y1="94.3337565" x2="178.183499" y2="1.13686838e-13" id="Line-Copy-9"></line>
                        <line x1="91.1766469" y1="94.3337565" x2="193.358113" y2="1.13686838e-13" id="Line-Copy-10"></line>
                        <line x1="106.351261" y1="94.3337565" x2="208.532727" y2="1.13686838e-13" id="Line-Copy-11"></line>
                        <line x1="121.525875" y1="94.3337565" x2="223.707341" y2="1.13686838e-13" id="Line-Copy-12"></line>
                        <line x1="136.700489" y1="94.3337565" x2="238.881955" y2="1.13686838e-13" id="Line-Copy-13"></line>
                        <line x1="151.875103" y1="94.3337565" x2="254.056569" y2="1.13686838e-13" id="Line-Copy-14"></line>
                        <line x1="167.049717" y1="94.3337565" x2="269.231183" y2="1.13686838e-13" id="Line-Copy-15"></line>
                        <line x1="182.224331" y1="94.3337565" x2="284.405797" y2="1.13686838e-13" id="Line-Copy-16"></line>
                    </g>
                </g>
            </g>
        </g>
    </g>
</svg>