<?xml version="1.0" encoding="UTF-8" standalone="no"?>
<svg width="72px" height="68px" viewBox="0 0 72 68" version="1.1" xmlns="http://www.w3.org/2000/svg" xmlns:xlink="http://www.w3.org/1999/xlink">
    <!-- Generator: Sketch 50.2 (55047) - http://www.bohemiancoding.com/sketch -->
    <title>SpotCircle</title>
    <desc>Created with Sketch.</desc>
    <defs></defs>
    <g id="SpotCircle" stroke="none" stroke-width="1" fill="none" fill-rule="evenodd">
        <path d="M72,36 C72,16.117749 55.882251,0 36,0 C16.117749,0 0,16.117749 0,36 L72,36 Z" id="Oval-3" fill="#FFFFFF" opacity="0.9"></path>
        <g id="Bike-counter" transform="translate(4.000000, 4.000000)">
            <circle id="Oval" fill="#CC0000" fill-rule="evenodd" cx="32" cy="32" r="32"></circle>
            <text id="2" font-family="Roboto-Bold, Roboto" font-size="24" font-weight="bold"></text>
            <g id="BikeIcon" transform="translate(18.000000, 37.000000)" fill="#FFFFFF" fill-rule="evenodd" stroke-width="1">
                <g id="Outlined">
                    <path d="M18.6770869,1.500728 L17.2217603,1.50779877 C16.8839214,1.50944018 16.6087012,1.24037763 16.6070387,0.906830744 C16.6053761,0.573283862 16.8779009,0.301560066 17.2157397,0.29991866 L19.0932298,0.290796786 C19.3473508,0.289562127 19.5757795,0.443573111 19.6670984,0.677709958 L23.6802333,10.9671836 C23.8016363,11.2784547 23.6444708,11.6279559 23.3291945,11.7478166 C23.0139182,11.8676772 22.6599197,11.7125084 22.5385167,11.4012374 L18.6770869,1.500728 Z" id="Line" fill-rule="nonzero"></path>
                    <path d="M13.7085916,10.9599101 C13.8340633,11.2696044 13.6814909,11.6210839 13.3678116,11.7449616 C13.0541323,11.8688393 12.6981301,11.7182052 12.5726584,11.4085109 L9.10516645,2.84991013 L8.15625,2.84991013 C7.81840706,2.84991013 7.54453125,2.57951369 7.54453125,2.24596277 C7.54453125,1.91241184 7.81840706,1.6420154 8.15625,1.6420154 L9.40803398,1.6420154 C9.44374977,1.63585395 9.48072515,1.63271127 9.51874279,1.63290258 L11.3312428,1.64202324 C12.1447813,1.64611704 12.1416741,2.84991013 11.328125,2.84991013 L10.422849,2.84991013 L13.7085916,10.9599101 Z" id="Line" fill-rule="nonzero"></path>
                    <path d="M5.890625,16.7092105 C2.79998776,16.7092105 0.29453125,14.2355838 0.29453125,11.1842105 C0.29453125,8.13283728 2.79998776,5.65921053 5.890625,5.65921053 C8.98126224,5.65921053 11.4867187,8.13283728 11.4867187,11.1842105 C11.4867187,14.2355838 8.98126224,16.7092105 5.890625,16.7092105 Z M5.890625,15.5013158 C8.30557636,15.5013158 10.2632812,13.5684819 10.2632812,11.1842105 C10.2632812,8.79993913 8.30557636,6.86710526 5.890625,6.86710526 C3.47567364,6.86710526 1.51796875,8.79993913 1.51796875,11.1842105 C1.51796875,13.5684819 3.47567364,15.5013158 5.890625,15.5013158 Z" id="Oval" fill-rule="nonzero"></path>
                    <path d="M23.109375,16.7092105 C20.0187378,16.7092105 17.5132812,14.2355838 17.5132812,11.1842105 C17.5132812,8.13283728 20.0187378,5.65921053 23.109375,5.65921053 C26.2000122,5.65921053 28.7054687,8.13283728 28.7054687,11.1842105 C28.7054687,14.2355838 26.2000122,16.7092105 23.109375,16.7092105 Z M23.109375,15.5013158 C25.5243264,15.5013158 27.4820312,13.5684819 27.4820312,11.1842105 C27.4820312,8.79993913 25.5243264,6.86710526 23.109375,6.86710526 C20.6944236,6.86710526 18.7367187,8.79993913 18.7367187,11.1842105 C18.7367187,13.5684819 20.6944236,15.5013158 23.109375,15.5013158 Z" id="Oval-Copy" fill-rule="nonzero"></path>
                    <path d="M7.03363194,10.5802632 L13.2136471,10.5802632 L19.6372539,4.00633931 L19.3363143,3.21155425 L12.2887758,8.5323819 C11.9693057,8.77357891 11.5050521,8.64999732 11.3516907,8.28293534 L10.2941112,5.75167687 L7.03363194,10.5802632 Z M19.2487235,1.75709178 C19.5749649,1.51078249 20.04949,1.64555225 20.1933019,2.02536126 L20.918303,3.94009798 C21.0008307,4.15805467 20.9491938,4.40343497 20.7855598,4.57089813 L13.9137338,11.6035298 C13.7984476,11.7215138 13.6395344,11.7881579 13.4734872,11.7881579 L5.890625,11.7881579 C5.40204806,11.7881579 5.11063051,11.2505569 5.38164423,10.8492008 L9.91289423,4.13867449 C10.1844547,3.73650868 10.8006861,3.79655937 10.9873714,4.24338045 L12.1787431,7.09486288 L19.2487235,1.75709178 Z" id="Rectangle-2" fill-rule="nonzero"></path>
                </g>
            </g>
        </g>
    </g>
</svg>