<?xml version="1.0" encoding="UTF-8" standalone="no"?>
<svg width="64px" height="38px" viewBox="0 0 64 38" version="1.1" xmlns="http://www.w3.org/2000/svg" xmlns:xlink="http://www.w3.org/1999/xlink">
    <!-- Generator: Sketch 50.2 (55047) - http://www.bohemiancoding.com/sketch -->
    <title>Outlined</title>
    <desc>Created with Sketch.</desc>
    <defs></defs>
    <g id="Symbols" stroke="none" stroke-width="1" fill="none" fill-rule="evenodd">
        <g id="Bike-icon" fill="#FFFFFF" fill-rule="nonzero">
            <g id="Outlined">
                <path d="M41.2183986,3.35456847 L38.0066434,3.37037372 C37.261068,3.37404275 36.6536854,2.77260881 36.6500163,2.02703343 C36.6463473,1.28145804 37.2477813,0.674075442 37.9933566,0.670406417 L42.1367829,0.650016346 C42.6976018,0.64725652 43.2017203,0.991516366 43.4032515,1.51488108 L52.2598252,24.5148811 C52.527749,25.2106634 52.1809012,25.9919015 51.4851189,26.2598252 C50.7893366,26.527749 50.0080985,26.1809012 49.7401748,25.4851189 L41.2183986,3.35456847 Z" id="Line"></path>
                <path d="M30.2534435,24.4986226 C30.5303466,25.1908803 30.1936352,25.9765404 29.5013774,26.2534435 C28.8091197,26.5303466 28.0234596,26.1936352 27.7465565,25.5013774 L20.0941604,6.37038736 L18,6.37038736 C17.2544156,6.37038736 16.65,5.76597177 16.65,5.02038736 C16.65,4.27480295 17.2544156,3.67038736 18,3.67038736 L20.7625577,3.67038736 C20.8413788,3.6566147 20.9229796,3.6495899 21.0068806,3.65001753 L25.0068806,3.67040489 C26.802276,3.67955574 26.7954187,6.37038736 25,6.37038736 L23.0021494,6.37038736 L30.2534435,24.4986226 Z" id="Line"></path>
                <path d="M13,37.35 C6.17928334,37.35 0.65,31.8207167 0.65,25 C0.65,18.1792833 6.17928334,12.65 13,12.65 C19.8207167,12.65 25.35,18.1792833 25.35,25 C25.35,31.8207167 19.8207167,37.35 13,37.35 Z M13,34.65 C18.3295478,34.65 22.65,30.3295478 22.65,25 C22.65,19.6704522 18.3295478,15.35 13,15.35 C7.67045216,15.35 3.35,19.6704522 3.35,25 C3.35,30.3295478 7.67045216,34.65 13,34.65 Z" id="Oval"></path>
                <path d="M51,37.35 C44.1792833,37.35 38.65,31.8207167 38.65,25 C38.65,18.1792833 44.1792833,12.65 51,12.65 C57.8207167,12.65 63.35,18.1792833 63.35,25 C63.35,31.8207167 57.8207167,37.35 51,37.35 Z M51,34.65 C56.3295478,34.65 60.65,30.3295478 60.65,25 C60.65,19.6704522 56.3295478,15.35 51,15.35 C45.6704522,15.35 41.35,19.6704522 41.35,25 C41.35,30.3295478 45.6704522,34.65 51,34.65 Z" id="Oval-Copy"></path>
                <path d="M15.5224981,23.65 L29.1611521,23.65 L43.3373878,8.95534669 L42.6732454,7.17876833 L27.1200569,19.0723831 C26.4150195,19.6115293 25.3904597,19.3352881 25.0520071,18.5147966 L22.7180384,12.8566895 L15.5224981,23.65 Z M42.4799416,3.92761693 C43.1999226,3.37704321 44.2471504,3.67829326 44.5645284,4.52727811 L46.1645307,8.80727784 C46.3466608,9.29447514 46.2327035,9.84297227 45.8715801,10.2173017 L30.7061711,25.937302 C30.4517463,26.2010309 30.1010414,26.35 29.7345924,26.35 L13,26.35 C11.9217612,26.35 11.2786328,25.1483036 11.8767321,24.2511547 L21.8767321,9.25115474 C22.476038,8.35219587 23.8359969,8.48642683 24.2479922,9.48520336 L26.8772261,15.8591053 L42.4799416,3.92761693 Z" id="Rectangle-2"></path>
            </g>
        </g>
    </g>
</svg>