<?xml version="1.0" encoding="UTF-8" standalone="no"?>
<svg width="512px" height="512px" viewBox="0 0 512 512" version="1.1" xmlns="http://www.w3.org/2000/svg" xmlns:xlink="http://www.w3.org/1999/xlink">
    <!-- Generator: Sketch 50.2 (55047) - http://www.bohemiancoding.com/sketch -->
    <title>Icon</title>
    <desc>Created with Sketch.</desc>
    <defs>
        <linearGradient x1="0%" y1="76.2908141%" x2="100%" y2="26.4510015%" id="linearGradient-1">
            <stop stop-color="#27ABE4" offset="0%"></stop>
            <stop stop-color="#8B3088" offset="100%"></stop>
        </linearGradient>
        <linearGradient x1="15.6950418%" y1="79.4240885%" x2="84.0953816%" y2="5.38942369%" id="linearGradient-2">
            <stop stop-color="#28A8E0" offset="0%"></stop>
            <stop stop-color="#8B3089" offset="100%"></stop>
        </linearGradient>
    </defs>
    <g id="Icon" stroke="none" stroke-width="1" fill="none" fill-rule="evenodd">
        <g id="Background-gradient">
            <rect id="Background" fill="url(#linearGradient-1)" x="0" y="0" width="512" height="512"></rect>
            <g id="Group" transform="translate(32.000000, 155.000000)" fill="#FFFFFF">
                <path d="M187.870027,2.639 L2.8659726,186.779992 C0.279232877,189.355939 -0.492493151,193.197561 0.899068493,196.563977 C2.2829589,199.945773 5.5340274,202.124947 9.17632877,202.124947 L240.941151,202.124947 C240.941151,202.124947 244.70926,202.063432 247.265315,199.521318 L271.188822,175.708803 L245.761753,175.708803 L245.761753,175.678045 L205.75474,17.9854924 L429.647342,17.9854924 L429.656548,17.9854924 L447.706959,0.0123030303 L194.238685,0.0338333333 C194.238685,0.0338333333 194.076055,0.0123030303 193.789151,0.0123030303 C192.779616,0.0123030303 190.246575,0.273742424 187.870027,2.639" id="Fill-9"></path>
                <polygon id="Fill-7" points="416.282555 39 390.85568 39 353.378277 76.2119326 343.914937 39 316.766339 39 331.700216 97.7380766 272 157.020905 297.425341 157.019371 336.828557 117.89697 346.776803 157.020905 373.930005 157.020905 358.506618 96.3692913"></polygon>
            </g>
        </g>
        <g id="Background-white">
            <rect id="Background" fill="#FFFFFF" x="0" y="0" width="512" height="512"></rect>
            <g id="Xbike" transform="translate(32.000000, 155.000000)">
                <path d="M187.870027,2.639 L2.8659726,186.779992 C0.279232877,189.355939 -0.492493151,193.197561 0.899068493,196.563977 C2.2829589,199.945773 5.5340274,202.124947 9.17632877,202.124947 L240.941151,202.124947 C240.941151,202.124947 244.70926,202.063432 247.265315,199.521318 L271.188822,175.708803 L245.761753,175.708803 L245.761753,175.678045 L205.75474,17.9854924 L429.647342,17.9854924 L429.656548,17.9854924 L447.706959,0.0123030303 L194.238685,0.0338333333 C194.238685,0.0338333333 194.076055,0.0123030303 193.789151,0.0123030303 C192.779616,0.0123030303 190.246575,0.273742424 187.870027,2.639" id="Fill-9" fill="url(#linearGradient-2)"></path>
                <polygon id="Fill-7" fill="#585858" points="416.282555 39 390.85568 39 353.378277 76.2119326 343.914937 39 316.766339 39 331.700216 97.7380766 272 157.020905 297.425341 157.019371 336.828557 117.89697 346.776803 157.020905 373.930005 157.020905 358.506618 96.3692913"></polygon>
            </g>
        </g>
    </g>
</svg>