<?xml version="1.0" encoding="UTF-8" standalone="no"?>
<svg width="34px" height="34px" viewBox="0 0 34 34" version="1.1" xmlns="http://www.w3.org/2000/svg" xmlns:xlink="http://www.w3.org/1999/xlink">
    <!-- Generator: Sketch 50.2 (55047) - http://www.bohemiancoding.com/sketch -->
    <title>Spot marker</title>
    <desc>Created with Sketch.</desc>
    <defs></defs>
    <g id="Spot-marker" stroke="none" stroke-width="1" fill="none" fill-rule="evenodd">
        <circle id="Oval" fill="#CC0000" cx="17" cy="17" r="17"></circle>
        <g id="BikeIcon" transform="translate(9.000000, 19.000000)" fill="#FFFFFF">
            <g id="Outlined">
                <path d="M10.3045997,0.794503058 L9.50166084,0.798246409 C9.31526699,0.799115388 9.16342134,0.656670508 9.16250409,0.480086865 C9.16158683,0.303503221 9.31194531,0.159649447 9.49833916,0.158780467 L10.5341957,0.15395124 C10.6744005,0.153297597 10.8004301,0.234832824 10.8508129,0.358787625 L13.0649563,5.80615605 C13.1319373,5.97094658 13.0452253,6.15597666 12.8712797,6.21943229 C12.6973342,6.28288793 12.5020246,6.20073975 12.4350437,6.03594922 L10.3045997,0.794503058 Z" id="Line" fill-rule="nonzero"></path>
                <path d="M7.56336088,5.80230535 C7.63258666,5.96626113 7.54840879,6.15233852 7.37534435,6.21792084 C7.20227992,6.28350315 7.00586489,6.2037557 6.93663912,6.03979991 L5.02354011,1.50877595 L4.5,1.50877595 C4.3136039,1.50877595 4.1625,1.36562489 4.1625,1.18903911 C4.1625,1.01245333 4.3136039,0.869302269 4.5,0.869302269 L5.19063944,0.869302269 C5.2103447,0.866040324 5.23074491,0.864376556 5.25172016,0.864477837 L6.25172016,0.869306422 C6.70056901,0.871473727 6.69885468,1.50877595 6.25,1.50877595 L5.75053736,1.50877595 L7.56336088,5.80230535 Z" id="Line" fill-rule="nonzero"></path>
                <path d="M3.25,8.84605263 C1.54482083,8.84605263 0.1625,7.53648552 0.1625,5.92105263 C0.1625,4.30561974 1.54482083,2.99605263 3.25,2.99605263 C4.95517917,2.99605263 6.3375,4.30561974 6.3375,5.92105263 C6.3375,7.53648552 4.95517917,8.84605263 3.25,8.84605263 Z M3.25,8.20657895 C4.58238696,8.20657895 5.6625,7.18331396 5.6625,5.92105263 C5.6625,4.6587913 4.58238696,3.63552632 3.25,3.63552632 C1.91761304,3.63552632 0.8375,4.6587913 0.8375,5.92105263 C0.8375,7.18331396 1.91761304,8.20657895 3.25,8.20657895 Z" id="Oval" fill-rule="nonzero"></path>
                <path d="M12.75,8.84605263 C11.0448208,8.84605263 9.6625,7.53648552 9.6625,5.92105263 C9.6625,4.30561974 11.0448208,2.99605263 12.75,2.99605263 C14.4551792,2.99605263 15.8375,4.30561974 15.8375,5.92105263 C15.8375,7.53648552 14.4551792,8.84605263 12.75,8.84605263 Z M12.75,8.20657895 C14.082387,8.20657895 15.1625,7.18331396 15.1625,5.92105263 C15.1625,4.6587913 14.082387,3.63552632 12.75,3.63552632 C11.417613,3.63552632 10.3375,4.6587913 10.3375,5.92105263 C10.3375,7.18331396 11.417613,8.20657895 12.75,8.20657895 Z" id="Oval-Copy" fill-rule="nonzero"></path>
                <path d="M3.88062452,5.60131579 L7.29028803,5.60131579 L10.834347,2.12100316 L10.6683113,1.7002346 L6.78001422,4.51714336 C6.60375487,4.6448359 6.34761493,4.57941034 6.26300177,4.38508342 L5.6795096,3.0450054 L3.88062452,5.60131579 Z M10.6199854,0.930225061 C10.7999807,0.799826024 11.0617876,0.871174719 11.1411321,1.07225008 L11.5411327,2.08593423 C11.5866652,2.20132306 11.5581759,2.33123028 11.467895,2.41988725 L7.67654276,6.1430452 C7.61293658,6.20550731 7.52526036,6.24078947 7.43364811,6.24078947 L3.25,6.24078947 C2.98044031,6.24078947 2.81965821,5.95617717 2.96918303,5.74369454 L5.46918303,2.19106296 C5.6190095,1.97815165 5.95899923,2.0099432 6.06199804,2.24649553 L6.71930652,3.75610388 L10.6199854,0.930225061 Z" id="Rectangle-2" fill-rule="nonzero"></path>
            </g>
        </g>
    </g>
</svg>