<?xml version="1.0" encoding="UTF-8" standalone="no"?>
<svg width="512px" height="512px" viewBox="0 0 512 512" version="1.1" xmlns="http://www.w3.org/2000/svg" xmlns:xlink="http://www.w3.org/1999/xlink">
    <!-- Generator: Sketch 50.2 (55047) - http://www.bohemiancoding.com/sketch -->
    <title>Icon</title>
    <desc>Created with Sketch.</desc>
    <defs>
        <polygon id="path-1" points="0.530661011 0.0539348968 224.822131 0.0539348968 224.822131 284 0.530661011 284"></polygon>
        <polygon id="path-3" points="0 0.364106395 174.968522 0.364106395 174.968522 186.804194 0 186.804194"></polygon>
    </defs>
    <g id="Icon" stroke="none" stroke-width="1" fill="none" fill-rule="evenodd">
        <g id="Red-bg">
            <rect id="Background-Red" fill="#CC0000" x="0" y="0" width="512" height="512"></rect>
            <g id="New-white" transform="translate(37.000000, 104.000000)">
                <g id="Group-3" transform="translate(215.000000, 0.000000)">
                    <mask id="mask-2" fill="white">
                        <use xlink:href="#path-1"></use>
                    </mask>
                    <g id="Clip-2"></g>
                    <path d="M140.031325,98.3102654 C134.924639,98.3102654 129.843976,98.6958103 124.843012,99.4636421 L124.912952,75.0657071 C124.912952,29.1549078 86.4330723,0.704949904 45.058012,0.0544107075 C37.6823494,0.030517782 30.3403012,0.906953728 23.2948193,2.57348528 C-15.6654217,14.1045369 0.382228916,54.6687511 33.9587349,43.5824337 C37.3223494,42.9563304 40.8637952,42.6750455 44.4854819,42.7011105 C62.9815663,42.8363228 81.8690964,61.1600245 81.8690964,78.3238333 L81.7140361,129.191328 C81.7660843,136.79308 85.9131325,143.780132 92.6322289,147.559015 C99.3621687,151.341156 107.595542,151.306946 114.291325,147.488965 C121.676747,143.264262 130.572651,140.921669 140.031325,140.921669 C163.856386,141.416361 181.438916,166.998625 181.438916,191.126678 C180.905964,229.882633 151.20488,241.199734 136.321807,241.372415 C116.258855,241.603741 100.540843,228.667894 96.0701205,215.858571 C93.2383735,207.740407 92.97,201.633592 92.97,191.723459 C92.97,189.591558 92.9965663,187.234304 93.063253,184.64355 C93.3045181,172.885516 83.79,163.146434 71.8178313,162.907504 C59.8386145,162.672919 49.95,172.000935 49.6913855,183.772545 C49.631747,186.514801 49.6019277,189.148453 49.6019277,191.723459 C49.6019277,247.17025 84.8824699,269.847351 96.0435542,275.982946 C107.204639,282.115826 121.799819,283.98056 134.765241,284.000109 C169.214639,283.817654 198.836024,267.556889 214.474337,238.74365 C223.833253,221.504904 224.806988,207.171321 224.820542,191.126678 C224.926807,162.121753 219.713855,147.00459 205.704759,128.320866 C188.73488,105.692636 160.756807,98.170709 140.031325,98.3102654" id="Fill-1" fill="#FFFFFF" mask="url(#mask-2)"></path>
                </g>
                <g id="Group-6" transform="translate(0.000000, 94.000000)">
                    <mask id="mask-4" fill="white">
                        <use xlink:href="#path-3"></use>
                    </mask>
                    <g id="Clip-5"></g>
                    <path d="M86.8086146,144.132316 C65.3849303,144.012723 42.251339,123.872714 42.450178,94.4017314 C42.6885681,59.6659378 65.1064474,42.8767081 87.1661997,43.0359843 C120.792748,43.3153971 132.796231,75.6185599 132.438646,95.0399233 C132.040967,119.247182 115.387252,144.291592 86.8086146,144.132316 M174.928429,91.3309087 C174.72959,84.6706645 174.133615,77.5320483 172.742283,70.2346994 C172.662639,69.7557837 172.543986,69.2774116 172.464342,68.7984959 C172.265503,67.9216616 172.066664,67.004057 171.867825,66.1266791 C171.550333,64.8905221 171.232299,63.614682 170.874172,62.3779814 C170.516587,60.9820047 170.079358,59.6262547 169.642128,58.2705047 C169.164807,56.7549349 168.648475,55.319275 168.092051,53.8433884 C167.455983,52.1685424 166.780364,50.4936965 165.98555,48.8585337 C165.468676,47.7419698 164.951803,46.6254058 164.395921,45.5887517 C163.838955,44.4716442 163.24298,43.3550802 162.606912,42.2385163 C161.176029,39.8058855 159.625952,37.3732547 157.877036,35.0199901 C150.40459,24.8110948 139.712252,14.5619727 124.727268,7.90172849 C123.892902,7.54294942 123.018444,7.18362674 122.143986,6.82539128 C121.548011,6.58566163 120.951494,6.34647558 120.315426,6.10674593 C119.401416,5.74851047 118.487407,5.42887093 117.533305,5.109775 C116.539652,4.79122267 115.505906,4.47212674 114.472701,4.15303081 C114.075023,4.03343779 113.638336,3.91384477 113.240658,3.79425174 C112.127268,3.47515581 110.974868,3.19574302 109.822469,2.91687384 C108.550333,2.59777791 107.199094,2.31890872 105.847314,2.07917907 C105.171695,1.95958605 104.536169,1.83999302 103.860008,1.7204 C103.42332,1.64049012 103.025642,1.60080698 102.588413,1.52089709 C100.759853,1.24202791 98.8917415,1.042525 96.9840789,0.843022093 C93.8438313,0.564152907 90.5843885,0.40433314 87.1661997,0.40433314 L87.1661997,0.364106395 L86.8481656,0.364106395 C57.9915867,1.36107733 26.1935991,12.0891151 8.82417183,49.8957314 C2.30528638,64.0930541 0.278428793,76.5758477 -5.41793538e-05,91.1314058 L-5.41793538e-05,91.4108186 C1.78895511,156.774385 32.9904257,179.146978 68.3257972,185.009211 C69.3590015,185.208714 70.3927477,185.36799 71.425952,185.52781 C76.7127941,186.405188 81.9590015,186.804194 87.0074536,186.804194 L87.6034288,186.804194 C116.301262,186.565008 140.34832,173.404339 154.419296,155.258816 C163.163336,144.132316 168.847314,131.689749 171.98702,119.087906 C172.185859,118.289894 172.384698,117.452743 172.543986,116.654731 C172.861478,115.179388 173.139961,113.663819 173.417902,112.187932 C173.656293,110.672906 173.895224,109.157336 174.094063,107.641766 C174.531293,104.53126 174.769683,101.420755 174.888878,98.349932 C174.928429,97.233368 174.968522,96.1564872 174.968522,95.0399233 L174.968522,94.2022285 C174.968522,93.2454843 174.928429,92.2881965 174.928429,91.3309087" id="Fill-4" fill="#FFFFFF" mask="url(#mask-4)"></path>
                </g>
                <path d="M234.506358,171.165203 L204.598412,171.165203 C196.889999,171.165203 190.641081,164.928957 190.641081,157.236177 C190.641081,149.543939 196.889999,143.30715 204.598412,143.30715 L234.506358,143.30715 C242.214771,143.30715 248.463689,149.543939 248.463689,157.236177 C248.463689,164.928957 242.214771,171.165203 234.506358,171.165203" id="Fill-7" stroke="#FFFFFF" stroke-width="10" fill="#FFFFFF"></path>
            </g>
        </g>
    </g>
</svg>