<?xml version="1.0" encoding="UTF-8" standalone="no"?>
<svg width="21px" height="21px" viewBox="0 0 21 21" version="1.1" xmlns="http://www.w3.org/2000/svg" xmlns:xlink="http://www.w3.org/1999/xlink">
    <!-- Generator: Sketch 50.2 (55047) - http://www.bohemiancoding.com/sketch -->
    <title>Select icon</title>
    <desc>Created with Sketch.</desc>
    <defs></defs>
    <g id="Select-icon" stroke="none" stroke-width="1" fill="none" fill-rule="evenodd">
        <path d="M10.5,20 C5.25329488,20 1,15.7467051 1,10.5 C1,5.25329488 5.25329488,1 10.5,1 C15.7467051,1 20,5.25329488 20,10.5 C20,15.7467051 15.7467051,20 10.5,20 Z M10.5,18 C14.6421356,18 18,14.6421356 18,10.5 C18,6.35786438 14.6421356,3 10.5,3 C6.35786438,3 3,6.35786438 3,10.5 C3,14.6421356 6.35786438,18 10.5,18 Z" id="Oval-5" fill="#FFFFFF" fill-rule="nonzero"></path>
        <path d="M12.4215076,4.70951694 L14.2904831,5.42150759 L10.5059163,15.3559953 C10.2052664,16.1452012 9.12219123,16.2293991 8.70318543,15.4961389 L5.63561792,10.1278958 L7.3721042,9.13561792 L9.39006601,12.6670511 L12.4215076,4.70951694 Z" id="Path-2" fill="#FFFFFF" fill-rule="nonzero"></path>
    </g>
</svg>