<?xml version="1.0" encoding="UTF-8"?>
<svg width="512px" height="512px" viewBox="0 0 512 512" version="1.1" xmlns="http://www.w3.org/2000/svg" xmlns:xlink="http://www.w3.org/1999/xlink" style="background: #FFFFFF;">
    <!-- Generator: Sketch 60.1 (88133) - https://sketch.com -->
    <title>Android / Production / App Icon</title>
    <desc>Created with Sketch.</desc>
    <g id="Android-/-Production-/-App-Icon" stroke="none" stroke-width="1" fill="none" fill-rule="evenodd">
        <rect fill="#FFFFFF" x="0" y="0" width="512" height="512"></rect>
        <g id="Group-37" transform="translate(-1.000000, 184.000000)">
            <g id="Group-5" transform="translate(0.000000, 51.000000)" fill="#009CB4">
                <g id="Fill-3" transform="translate(0.351171, 0.000000)">
                    <path d="M314.503929,69.2442407 C146.723277,46.1090034 -11.8001737,70.5861559 -39.5679373,123.916902 C-50.033356,144.017802 -36.5645553,195.045502 0.838464535,277 L210.729721,277 L512.648829,277 C542.686763,244.008151 561.144304,220.907875 568.021452,207.699173 C595.788256,154.368427 482.284582,92.3804441 314.503929,69.2442407 Z"></path>
                </g>
            </g>
            <g id="Group-36" transform="translate(165.000000, 0.000000)">
                <path d="M149.680424,5.34626601 L125.442505,3.47215271 C124.105837,3.36936946 123.563477,4.2204532 123.912549,5.42887685 L128.963999,22.8299852 L72.94224,18.4996404 L70.3217945,9.49025616 C73.3980533,9.43069951 76.4214223,9.28949261 79.4688321,9.28757143 C80.5160487,9.29141379 81.3315121,9.29525616 82.2392921,9.34040394 C83.0124438,9.35769458 83.7740558,9.41629064 84.0644685,8.85242365 C84.6597183,7.75927094 84.9270518,5.29727586 84.5183585,4.08404926 C84.3193008,3.36264532 83.8759887,3.37129064 83.1836141,3.30885222 C80.0525424,2.96496059 76.9445498,2.65661084 73.8394421,2.30599507 C68.3937236,1.63934483 62.9278109,0.892965517 57.4820924,0.115847291 C56.757984,0.00826108374 56.403142,0.0831871921 56.0540698,0.863187192 C55.2857263,2.53845813 55.1799469,5.10611823 55.6530695,6.91106897 C55.993487,8.229 56.6733604,8.35003448 58.0225292,8.63244828 C59.4476669,8.91294089 60.9218478,9.0954532 62.4017985,9.22705419 L65.2463041,18.9760936 L50.9478072,45.3558473 C47.7138409,44.0350345 44.24139,43.1628177 40.5775745,42.8794433 C21.7459473,41.4241478 5.15876767,55.59767 3.69901125,74.4339015 C2.24021645,93.2710936 16.44832,109.816315 35.2799472,111.272571 C52.8758781,112.631808 68.4543064,100.395798 71.6555772,83.4615369 L76.5954776,83.8438522 C77.8177111,88.3932118 81.8007882,91.9137783 86.7329956,92.295133 C92.9932158,92.7792709 98.5158648,88.0541232 99.000527,81.8006749 C99.1351554,80.0600837 98.8572439,78.3800099 98.2600708,76.8555517 L134.009679,40.2061182 L137.990833,53.9627438 C126.222388,58.6638768 117.469619,69.7029901 116.428172,83.1474236 C114.969378,101.984616 129.142862,118.526956 147.983144,119.983212 C166.840736,121.440429 183.418299,107.275552 184.878055,88.4383596 C186.33685,69.6021281 172.138363,53.0492217 153.280772,51.5910443 C150.540122,51.3787537 147.846593,51.5362906 145.235763,51.9551084 L133.401928,11.1357488 L149.13614,12.3691478 C154.880926,12.8119803 155.517526,5.79774384 149.680424,5.34626601 L149.680424,5.34626601 Z M140.397796,62.2247882 L148.135082,88.9052069 C148.833226,91.3143695 155.995457,89.0540985 155.297313,86.644936 L147.647535,60.2603793 C149.270769,60.0721034 150.934391,60.0211921 152.618208,60.1518325 C166.787846,61.2469064 177.418681,73.6481379 176.324344,87.7774729 C175.230008,101.906808 162.816308,112.518458 148.645708,111.422424 C134.518382,110.331192 123.886585,97.9386059 124.980922,83.8092709 C125.740611,74.0064384 131.949864,65.9163399 140.397796,62.2247882 L140.397796,62.2247882 Z M68.3023686,29.5166601 L80.6429841,71.9229163 C79.1572636,73.074665 77.9590709,74.5895172 77.1772646,76.331069 L72.2373642,75.9497143 C71.8757908,64.9029163 66.1742784,55.0088276 57.5022867,48.9571034 L68.3023686,29.5166601 Z M44.0029054,73.2562167 L53.3172669,56.5063892 C59.1832183,60.8866847 63.0730172,67.682867 63.5999912,75.2811429 L44.3192821,73.791266 C44.223119,73.6049113 44.1173396,73.4358473 44.0029054,73.2562167 L44.0029054,73.2562167 Z M131.624833,31.9882611 L93.6798206,71.2725961 C92.1623663,70.3139261 90.407389,69.6856995 88.4956659,69.5377685 C88.2581429,69.5195172 88.0196583,69.5262414 87.7811738,69.5329655 L75.1866876,26.2314384 L131.208447,30.5617833 L131.624833,31.9882611 Z M12.2777247,75.09767 C13.3720612,60.9673744 25.7944153,50.349 39.9140488,51.4402315 C42.334475,51.6275468 44.6414287,52.1712414 46.8176005,52.968532 L37.6320976,69.9248867 C34.0452125,70.0805025 31.0555006,72.8681379 30.7718193,76.5270296 C30.4650589,80.4817833 33.4297685,83.9504778 37.3811118,84.2559458 C39.9534757,84.4547882 42.3094726,83.2511675 43.7374952,81.3040493 L63.0172426,82.7939261 C60.235243,94.982867 48.8024076,103.705995 35.9434729,102.710823 C21.8228778,101.620552 11.1853115,89.2020296 12.2777247,75.09767 L12.2777247,75.09767 Z" id="Fill-6" fill="#153D8A"></path>
                <path d="M128.975827,155.426431 L139.262398,179.519017 C139.787449,180.789879 140.564447,181.380643 141.711673,181.380643 C142.89448,181.380643 143.719559,180.772589 144.234994,179.521899 L154.514833,155.426431 L150.183645,155.426431 L141.708788,175.568106 L133.278166,155.426431 L128.975827,155.426431 Z" id="Fill-8" fill="#FFFFFF"></path>
                <path d="M113.97707,154.835956 C108.407301,154.835956 104.516541,158.721547 104.516541,164.286251 L104.516541,181.372286 C106.982164,181.254133 108.44192,179.799798 108.44192,177.431941 L108.44192,164.057631 C108.44192,160.757039 110.718101,158.451621 113.97707,158.451621 C115.571455,158.451621 116.397496,158.880044 117.464907,159.832951 L119.793978,157.053961 C118.069773,155.482433 116.362878,154.835956 113.97707,154.835956" id="Fill-10" fill="#FFFFFF"></path>
                <path d="M97.8777262,154.835956 C92.3069957,154.835956 88.4162351,158.721547 88.4162351,164.286251 L88.4162351,181.372286 C90.881858,181.254133 92.342576,179.799798 92.342576,177.431941 L92.342576,164.057631 C92.342576,160.757039 94.6187575,158.451621 97.8777262,158.451621 C99.472111,158.451621 100.298152,158.880044 101.364602,159.832951 L103.694634,157.053961 C101.970429,155.482433 100.262572,154.835956 97.8777262,154.835956" id="Fill-12" fill="#FFFFFF"></path>
                <path d="M168.079221,177.764882 C162.787363,177.764882 158.64177,173.522911 158.64177,168.108059 C158.64177,162.693207 162.787363,158.452197 168.079221,158.452197 C173.414351,158.452197 177.593601,162.693207 177.593601,168.108059 C177.593601,173.522911 173.414351,177.764882 168.079221,177.764882 M168.079221,154.835571 C160.461177,154.835571 154.716391,160.541483 154.716391,168.108059 C154.716391,175.674635 160.461177,181.380547 168.079221,181.380547 C171.324727,181.380547 174.508688,180.160596 177.041625,177.946433 L177.497438,177.547788 L177.589755,178.146236 C177.886899,180.074143 179.345694,181.263355 181.518981,181.371901 L181.518981,168.108059 C181.518981,160.665399 175.615526,154.835571 168.079221,154.835571" id="Fill-14" fill="#FFFFFF"></path>
                <path d="M69.8153033,177.764882 C64.5234458,177.764882 60.377853,173.522911 60.377853,168.108059 C60.377853,162.693207 64.5234458,158.452197 69.8153033,158.452197 C75.1504341,158.452197 79.3296841,162.693207 79.3296841,168.108059 C79.3296841,173.522911 75.1504341,177.764882 69.8153033,177.764882 M69.8153033,154.835571 C62.1972595,154.835571 56.4524737,160.541483 56.4524737,168.108059 C56.4524737,175.674635 62.1972595,181.380547 69.8153033,181.380547 C73.0608092,181.380547 76.2447706,180.160596 78.7777077,177.946433 L79.30372,177.487271 L79.3296841,178.18466 C79.3979599,180.039562 80.9259922,181.267197 83.2550634,181.372862 L83.2550634,168.108059 C83.2550634,160.665399 77.3516084,154.835571 69.8153033,154.835571" id="Fill-16" fill="#FFFFFF"></path>
                <path d="M122.360861,155.426431 L122.360861,181.371998 C124.826484,181.253845 126.287202,179.79951 126.287202,177.432613 L126.287202,155.426431 L122.360861,155.426431 Z" id="Fill-18" fill="#FFFFFF"></path>
                <path d="M124.332494,146.84403 C122.912164,146.84403 121.757245,147.9977 121.757245,149.415532 C121.757245,150.769005 122.936205,151.912108 124.332494,151.912108 C125.686471,151.912108 126.830812,150.769005 126.830812,149.415532 C126.830812,148.021714 125.686471,146.84403 124.332494,146.84403" id="Fill-20" fill="#FFFFFF"></path>
                <path d="M29.5165057,168.906214 C31.7292195,169.471042 33.7438373,170.072372 35.5401647,170.68715 C36.2835057,172.124195 36.9470314,173.46614 37.610557,174.850352 C38.8424068,174.884933 40.1040672,174.892618 41.3330321,174.795599 C40.9801134,174.035771 40.626233,173.324933 40.2463886,172.544933 C41.4763151,173.110722 42.6177716,173.688998 43.7178779,174.481485 C46.4691052,173.886879 46.4623738,172.96183 45.4853563,172.062717 C41.7051834,168.583456 32.1282966,166.015796 27.4182261,164.961067 C27.8923103,165.839047 29.1991674,168.289515 29.5165057,168.906214" id="Fill-22" fill="#FFFFFF"></path>
                <path d="M5.56111424,166.564773 C6.2496423,166.413961 7.04971961,166.296768 8.13732469,166.225685 C8.74315246,165.106596 9.36532796,163.996153 10.0009663,162.893394 C6.69776252,162.981768 5.04952635,163.534108 4.30522366,163.985586 C3.49168352,164.481251 3.85806508,165.347704 5.56111424,166.564773" id="Fill-24" fill="#FFFFFF"></path>
                <path d="M47.4770872,173.501394 C46.340439,178.641517 27.3616822,175.210286 24.1469485,174.565729 C20.0907873,173.753069 1.30724169,169.068266 2.52659027,164.196148 C2.15540056,164.972305 1.88518215,166.71866 1.78421085,167.451591 C1.67746977,168.225828 1.95634287,169.113414 2.22848455,169.531271 C2.96413255,170.660926 4.49985785,171.668586 6.46831728,172.628217 C5.03356327,175.605089 0.722569815,184.941074 0.577363477,189.693118 C0.518703963,191.616222 0.978363761,191.716123 2.3188779,190.870803 C2.7083386,190.624892 3.39878993,190.044695 3.79402043,189.661419 C4.64506419,184.650975 8.10309062,177.222724 9.63785429,173.992256 C11.5591938,174.731911 13.5016892,175.409128 15.4797649,175.98068 C13.6988236,179.015187 8.47428033,187.460704 4.38927025,191.023537 C2.22463802,192.911099 1.18511451,193.017724 0.414847775,192.660384 C0.694682505,192.998512 2.15732383,193.814054 2.64006278,194.038833 C3.53341832,194.455729 4.22002312,194.604621 5.05279589,194.280901 C9.29551352,192.624842 16.2654177,181.700039 18.9666403,176.92398 C22.5977603,177.91531 25.8663454,178.556985 29.7878781,179.05265 C31.8726949,182.264867 36.865485,190.105212 40.8860658,193.327995 C42.4698727,194.596936 43.3334177,194.664177 44.4681427,194.114719 C45.557671,193.587355 46.1567674,193.152207 46.7000891,192.693044 C46.3202447,192.797749 45.6769133,192.809276 44.5825768,192.136862 C40.9014519,189.878512 35.3326446,181.188044 34.2460012,179.560803 C36.1288754,179.740433 37.9675146,179.777897 39.8638517,179.697207 C41.154361,182.706739 42.442947,185.923759 43.2074439,189.113882 C43.7546122,189.683512 44.5152626,190.499054 45.6884529,191.181074 C46.3260145,191.551862 46.5241106,191.376074 46.5616142,190.688291 C46.7279764,187.702773 44.2498524,181.647207 43.3343793,179.366764 C45.3134167,178.958512 46.3058202,178.187158 46.7558637,176.954719 C47.0241589,176.221788 47.4953582,174.384177 47.4770872,173.501394" id="Fill-26" fill="#FFFFFF"></path>
                <path d="M17.2697455,154.168537 C14.015585,158.653537 11.2278156,163.378685 8.64775863,168.2777 C9.6892054,168.776246 10.7662325,169.220039 11.8442213,169.632133 C12.4538956,168.480384 13.0222197,167.408365 13.6636279,166.273906 C15.2868616,166.379571 17.0177981,166.559202 18.8122023,166.805113 C19.3324448,165.758069 19.8392246,164.705261 20.3296566,163.643808 C18.6689192,163.400778 17.0581866,163.213463 15.5282311,163.084744 C16.5725628,161.35568 17.6563213,159.64967 18.7929696,157.979202 C19.4430324,159.509424 20.127714,161.025236 20.8383596,162.528562 C21.4691897,161.126099 22.0721326,159.712108 22.6366102,158.280828 C21.0566499,154.609448 18.9497155,149.848759 18.2236839,145.536665 C18.0275111,144.369547 17.8361464,142.504079 18.9324062,141.753857 C18.1631011,142.024744 16.7706588,142.83164 16.1657927,143.283118 C15.4936124,143.783586 15.1387704,144.620261 15.1089598,145.3993 C15.0233746,147.639399 16.19368,151.177256 17.2697455,154.168537" id="Fill-28" fill="#FFFFFF"></path>
                <path d="M17.9168273,171.595197 C18.9255786,171.893941 20.2814788,172.259926 21.3286954,172.492389 C22.138389,170.970813 22.8653823,169.53569 23.5866059,168.049655 C24.5770862,169.949704 25.553142,171.742167 26.6128598,173.604754 C28.0562685,173.864113 29.5285261,174.098498 30.9825128,174.287734 C29.83144,172.338695 26.3830299,166.197635 25.4108206,164.113153 C26.3561042,161.969113 27.2369586,159.796256 28.0043404,157.582094 C29.388128,159.739581 30.8421146,162.114163 32.3547607,164.783645 C33.9241431,165.222635 35.4723697,165.695246 37.0109799,166.234138 C34.6242108,161.819261 32.0787725,157.539828 29.2669624,153.380468 C29.5871856,152.059655 29.8708669,150.673522 29.7920131,149.307562 C29.7439316,148.491059 29.4823678,147.620764 28.7784537,147.092438 C28.1014652,146.584286 26.6494018,145.782192 25.9954925,145.549729 C26.8801933,146.271133 26.8763468,147.668793 26.8023012,148.697586 C26.4676535,153.355493 22.7519098,162.778892 17.9168273,171.595197" id="Fill-30" fill="#FFFFFF"></path>
                <path d="M20.7777768,149.77364 C20.9595251,150.369207 21.8798063,152.86002 22.1182909,153.440217 C22.7193105,152.689034 23.2760951,152.032951 23.7915295,151.46332 C24.0569398,151.818739 24.3271582,152.187606 24.604108,152.569921 C24.9127917,151.471966 25.4205331,149.447039 25.4301494,148.304897 C25.4464971,146.426941 25.1070412,146.080167 23.4972703,147.223271 C22.4837108,147.941793 21.606703,148.856276 20.7777768,149.77364" id="Fill-32" fill="#FFFFFF"></path>
                <path d="M19.9142318,146.791966 C20.1892584,147.077261 20.4767862,147.390414 20.7777768,147.728542 C21.5566982,146.954305 22.3942791,146.192557 23.3587954,145.656547 C22.569296,144.797778 21.726907,143.918837 20.735465,143.28869 C19.7805651,142.682557 19.4526488,142.63933 19.4939989,144.171473 C19.5151548,144.909207 19.7430614,146.075365 19.9142318,146.791966" id="Fill-34" fill="#FFFFFF"></path>
            </g>
        </g>
    </g>
</svg>