<?xml version="1.0" encoding="UTF-8" standalone="no"?>
<svg width="6px" height="21px" viewBox="0 0 6 21" version="1.1" xmlns="http://www.w3.org/2000/svg" xmlns:xlink="http://www.w3.org/1999/xlink">
    <!-- Generator: Sketch 50.2 (55047) - http://www.bohemiancoding.com/sketch -->
    <title>info icon</title>
    <desc>Created with Sketch.</desc>
    <defs></defs>
    <g id="Symbols" stroke="none" stroke-width="1" fill="none" fill-rule="evenodd">
        <g id="Info-icon" transform="translate(-21.000000, -13.000000)" fill="#4A4A4A" fill-rule="nonzero">
            <g id="info-icon" transform="translate(21.000000, 13.000000)">
                <path d="M4.5,8.5 L1.5,8.5 L1.5,8.79289322 L2.35355339,9.64644661 C2.44732158,9.7402148 2.5,9.86739176 2.5,10 L2.5,19.5 L4.5,19.5 L4.5,8.5 Z M1.5,10.2071068 L0.646446609,9.35355339 C0.55267842,9.2597852 0.5,9.13260824 0.5,9 L0.5,8 C0.5,7.72385763 0.723857625,7.5 1,7.5 L5,7.5 C5.27614237,7.5 5.5,7.72385763 5.5,8 L5.5,20 C5.5,20.2761424 5.27614237,20.5 5,20.5 L2,20.5 C1.72385763,20.5 1.5,20.2761424 1.5,20 L1.5,10.2071068 Z" id="Rectangle"></path>
                <path d="M3,5.5 C1.61928813,5.5 0.5,4.38071187 0.5,3 C0.5,1.61928813 1.61928813,0.5 3,0.5 C4.38071187,0.5 5.5,1.61928813 5.5,3 C5.5,4.38071187 4.38071187,5.5 3,5.5 Z M3,4.5 C3.82842712,4.5 4.5,3.82842712 4.5,3 C4.5,2.17157288 3.82842712,1.5 3,1.5 C2.17157288,1.5 1.5,2.17157288 1.5,3 C1.5,3.82842712 2.17157288,4.5 3,4.5 Z" id="Oval-2"></path>
            </g>
        </g>
    </g>
</svg>