<?xml version="1.0" encoding="UTF-8"?>
<svg width="512px" height="512px" viewBox="0 0 512 512" version="1.1" xmlns="http://www.w3.org/2000/svg" xmlns:xlink="http://www.w3.org/1999/xlink">
    <!-- Generator: Sketch 60.1 (88133) - https://sketch.com -->
    <title>ic_launcher</title>
    <desc>Created with Sketch.</desc>
    <g id="Page-1" stroke="none" stroke-width="1" fill="none" fill-rule="evenodd">
        <g id="ic_launcher">
            <rect id="Background-Red" fill="#3B0466" fill-rule="nonzero" x="0" y="0" width="512" height="512"></rect>
            <g id="Logo" transform="translate(1.000000, 0.000000)">
                <g id="Group-8" transform="translate(45.000000, 222.000000)" fill="#000000">
                    <path d="M303.865108,8.61347742 C259.512661,8.61347742 223.425197,44.6426871 223.425197,88.9235366 C223.425197,133.204386 259.512661,169.229289 303.865108,169.229289 C348.217554,169.229289 384.300705,133.204386 384.300705,88.9235366 C384.300705,44.6426871 348.217554,8.61347742 303.865108,8.61347742 M303.865108,177.790994 C254.781804,177.790994 214.845336,137.918994 214.845336,88.9235366 C214.845336,39.9151602 254.781804,0.0431602151 303.865108,0.0431602151 C352.948411,0.0431602151 392.88488,39.9151602 392.88488,88.9235366 C392.88488,137.9233 352.948411,177.790994 303.865108,177.790994" id="Fill-4"></path>
                    <path d="M89.4482378,8.61347742 C45.0957915,8.61347742 9.01264024,44.6426871 9.01264024,88.9235366 C9.01264024,133.204386 45.0957915,169.229289 89.4482378,169.229289 C133.805477,169.229289 169.888149,133.204386 169.888149,88.9235366 C169.888149,44.6426871 133.805477,8.61347742 89.4482378,8.61347742 M89.4482378,177.790994 C40.3654134,177.790994 0.428465854,137.918994 0.428465854,88.9235366 C0.428465854,39.9151602 40.3654134,0.0431602151 89.4482378,0.0431602151 C138.531541,0.0431602151 178.46801,39.9151602 178.46801,88.9235366 C178.46801,137.9233 138.531541,177.790994 89.4482378,177.790994" id="Fill-6"></path>
                </g>
                <path d="M355,235.582476 C310.657405,235.582476 274.577955,271.662799 274.577955,316.006469 C274.577955,360.350139 310.657405,396.426149 355,396.426149 C399.342595,396.426149 435.417732,360.350139 435.417732,316.006469 C435.417732,271.662799 399.342595,235.582476 355,235.582476 M355,405 C305.927598,405 266,365.071435 266,316.006469 C266,266.928565 305.927598,227 355,227 C404.072402,227 444,266.928565 444,316.006469 C444,365.075747 404.072402,405 355,405" id="Fill-9" fill="#FFFFFF"></path>
                <path d="M141,235.582476 C96.6574047,235.582476 60.5822678,271.662799 60.5822678,316.006469 C60.5822678,360.350139 96.6574047,396.426149 141,396.426149 C185.346908,396.426149 221.422045,360.350139 221.422045,316.006469 C221.422045,271.662799 185.346908,235.582476 141,235.582476 M141,405 C91.9275981,405 52,365.071435 52,316.006469 C52,266.928565 91.9275981,227 141,227 C190.072402,227 230,266.928565 230,316.006469 C230,365.075747 190.072402,405 141,405" id="Fill-11" fill="#FFFFFF"></path>
                <polygon id="Fill-13" fill="#E5B900" points="234 298 220.627756 287.757642 184 254 197.372244 264.242358"></polygon>
                <polygon id="Fill-15" fill="#E5B900" points="198.279698 265 185 254.753995 323.720302 195 337 205.246005"></polygon>
                <polygon id="Fill-17" fill="#F6E71D" points="336.820725 205 396 255.603931 284.497831 298.448195 330.577941 344.250547 86 358 234.226965 298.318668 197.76466 264.623021"></polygon>
                <polygon id="Fill-19" fill="#E5B900" points="86.3498457 359 73 348.762541 221.650154 289 235 299.237459"></polygon>
                <path d="M295.502167,83.7423039 C277.990092,83.7423039 263.7476,97.9847964 263.7476,115.502167 C263.7476,133.009908 277.990092,147.2524 295.502167,147.2524 C313.009908,147.2524 327.257215,133.009908 327.257215,115.502167 C327.257215,97.9900924 313.009908,83.7423039 295.502167,83.7423039 M295.502167,157 C272.617983,157 254,138.381535 254,115.502167 C254,92.6223165 272.617983,74 295.502167,74 C318.381535,74 337,92.6223165 337,115.502167 C337,138.381535 318.381535,157 295.502167,157" id="Fill-21" fill="#000000"></path>
                <path d="M242.264823,343 L232.970852,340.184708 C240.307162,315.907675 245.125245,290.770348 247.286879,265.489878 C247.857043,258.846249 248.18004,251.912493 245.405528,246.514875 C242.806191,241.459742 237.660312,237.893192 232.210633,234.117213 L229.81575,232.448501 C222.455923,227.250225 215.565955,221.320387 209.32726,214.809813 C200.389403,205.493554 196.797558,196.971783 198.351112,188.754549 C199.677177,181.706472 204.622923,176.489943 209.289345,172.309515 C223.876536,159.255704 241.509403,149.469189 260.287399,144 L263,153.334992 C245.60998,158.394929 229.269582,167.463811 215.765609,179.552612 C212.316305,182.638338 208.685585,186.361959 207.897049,190.547191 C206.970292,195.454859 209.726087,201.185355 216.326174,208.066753 C222.146844,214.134931 228.565995,219.6608 235.417569,224.501701 L237.736142,226.118536 C243.642721,230.20866 250.333036,234.849737 254.048704,242.068817 C257.996662,249.763437 257.626151,258.612802 256.965758,266.312226 C254.742212,292.268058 249.800306,318.071622 242.264823,343" id="Fill-23" fill="#000000"></path>
                <path d="M315.172103,250 C258.564027,239.139051 271.060266,236.177936 246,184.239581 L254.762559,180 C278.504066,229.22793 263.361656,230.145038 317,240.434839 L315.172103,250 Z" id="Fill-25" fill="#000000"></path>
                <path d="M303.502167,87.7427854 C285.990092,87.7427854 271.7476,101.985278 271.7476,119.502167 C271.7476,137.009908 285.990092,151.2524 303.502167,151.2524 C321.009908,151.2524 335.257215,137.009908 335.257215,119.502167 C335.257215,101.990092 321.009908,87.7427854 303.502167,87.7427854 M303.502167,161 C280.617983,161 262,142.381535 262,119.502167 C262,96.6223165 280.617983,78 303.502167,78 C326.381535,78 345,96.6223165 345,119.502167 C345,142.381535 326.381535,161 303.502167,161" id="Fill-27" fill="#FFFFFF"></path>
                <path d="M249.264344,346 L239.970853,343.185188 C247.306683,318.908155 252.124765,293.770348 254.286879,268.489878 C254.857044,261.846249 255.180041,254.912493 252.405048,249.515355 C249.806192,244.459742 244.660313,240.893673 239.210634,237.117213 L236.815751,235.448501 C229.455445,230.250225 222.565476,224.320387 216.326782,217.809813 C207.389404,208.493554 203.797559,199.971783 205.351114,191.754549 C206.676698,184.706952 211.622924,179.489943 216.288867,175.309515 C230.876537,162.256185 248.508924,152.469189 267.286919,147 L270,156.334992 C252.609501,161.395409 236.269103,170.464292 222.76513,182.552612 C219.315826,185.638818 215.685586,189.36244 214.897051,193.547191 C213.970293,198.454859 216.726089,204.185355 223.326176,211.066753 C229.146365,217.134931 235.565996,222.6608 242.41757,227.501701 L244.736143,229.118536 C250.642241,233.20866 257.332556,237.849737 261.048224,245.068817 C264.996662,252.763437 264.626151,261.613283 263.965758,269.312706 C261.741733,295.268058 256.800306,321.071622 249.264344,346" id="Fill-29" fill="#FFFFFF"></path>
                <path d="M321.172103,245 C264.564027,234.139051 277.060266,231.177936 252,179.2391 L260.76304,175 C284.504066,224.227449 269.361656,225.144557 323,235.434358 L321.172103,245 Z" id="Fill-31" fill="#FFFFFF"></path>
            </g>
        </g>
    </g>
</svg>