<?xml version="1.0" encoding="UTF-8" standalone="no"?>
<svg width="12px" height="17px" viewBox="0 0 12 17" version="1.1" xmlns="http://www.w3.org/2000/svg" xmlns:xlink="http://www.w3.org/1999/xlink">
    <!-- Generator: Sketch 50.2 (55047) - http://www.bohemiancoding.com/sketch -->
    <title>Lock icon</title>
    <desc>Created with Sketch.</desc>
    <defs></defs>
    <g id="Lock-icon" stroke="none" stroke-width="1" fill="none" fill-rule="evenodd">
        <g transform="translate(0.000000, 1.000000)" fill="#FFFFFF">
            <rect id="Rectangle-10" x="0" y="7" width="12" height="9"></rect>
            <path d="M6,1 C4.34314575,1 3,2.34314575 3,4 L3,8 C3,9.65685425 4.34314575,11 6,11 C7.65685425,11 9,9.65685425 9,8 L9,4 C9,2.34314575 7.65685425,1 6,1 Z M6,-1 C8.76142375,-1 11,1.23857625 11,4 L11,8 C11,10.7614237 8.76142375,13 6,13 C3.23857625,13 1,10.7614237 1,8 L1,4 C1,1.23857625 3.23857625,-1 6,-1 Z" id="Rectangle-11" fill-rule="nonzero"></path>
        </g>
    </g>
</svg>