<?xml version="1.0" encoding="UTF-8" standalone="no"?>
<svg width="12px" height="18px" viewBox="0 0 12 18" version="1.1" xmlns="http://www.w3.org/2000/svg" xmlns:xlink="http://www.w3.org/1999/xlink">
    <!-- Generator: Sketch 50.2 (55047) - http://www.bohemiancoding.com/sketch -->
    <title>Unlock icon</title>
    <desc>Created with Sketch.</desc>
    <defs></defs>
    <g id="Unlock-icon" stroke="none" stroke-width="1" fill="none" fill-rule="evenodd">
        <g transform="translate(6.000000, 9.000000) scale(-1, 1) translate(-6.000000, -9.000000) " fill="#FFFFFF">
            <rect id="Rectangle-10" x="0" y="9" width="12" height="9"></rect>
            <path d="M3,5 L3,11 C3,12.6568542 4.34314575,14 6,14 C7.65685425,14 9,12.6568542 9,11 L9,5 C9,3.34314575 7.65685425,2 6,2 C4.34314575,2 3,3.34314575 3,5 Z M11,8 L11,9 L11,18 L9,18 L9,15.0003662 C8.16433947,15.6280552 7.12560592,16 6,16 C3.23857625,16 1,13.7614237 1,11 L1,5 C1,2.23857625 3.23857625,1.02140518e-14 6,0 C8.76142375,1.0658141e-14 11,2.23857625 11,5 L11,8 L11,7 L9,7 L9,15.0003662 C10.2144467,14.0881599 11,12.6358178 11,11 L11,9 L11,8 Z" id="Rectangle-11" fill-rule="nonzero"></path>
        </g>
    </g>
</svg>