<?xml version="1.0" encoding="UTF-8"?>
<svg width="512px" height="512px" viewBox="0 0 512 512" version="1.1" xmlns="http://www.w3.org/2000/svg" xmlns:xlink="http://www.w3.org/1999/xlink">
    <!-- Generator: Sketch 60.1 (88133) - https://sketch.com -->
    <title>AppIcon Staging Android</title>
    <desc>Created with Sketch.</desc>
    <g id="AppIcon-Staging-Android" stroke="none" stroke-width="1" fill="none" fill-rule="evenodd">
        <rect fill="#FFFFFF" x="0" y="0" width="512" height="512"></rect>
        <rect id="Rectangle" fill="#FFFFFF" x="0" y="0" width="512" height="512"></rect>
        <g id="Dev-3" transform="translate(0.000000, 322.000000)">
            <rect id="Rectangle" fill="#48B5C8" x="0" y="0" width="512" height="190"></rect>
            <path d="M218,60.0164616 L218,11 L228.642899,11 C233.944666,11 237.684425,12.2022414 239.862288,14.6067601 C242.040151,17.0112789 243.129067,20.7953829 243.129067,25.9591855 L243.129067,43.9929862 C243.129067,49.3735898 242.050006,53.389273 239.891852,56.0401564 C237.733697,58.6910398 234.151609,60.0164616 229.14548,60.0164616 L218,60.0164616 Z M224.829193,55.1089028 L228.672462,55.1089028 C229.717048,55.1089028 230.638438,55.0054312 231.43666,54.7984849 C232.234881,54.5915386 232.900056,54.3451776 233.432203,54.0593947 C233.964351,53.7736117 234.412728,53.3153804 234.777347,52.6846869 C235.141967,52.0539935 235.417891,51.4725817 235.605128,50.9404341 C235.792366,50.4082865 235.935255,49.6199315 236.033801,48.5753454 C236.132347,47.5307594 236.191473,46.6389328 236.211182,45.8998389 C236.230892,45.1607451 236.240746,44.0915386 236.240746,42.6921875 L236.240746,26.7574029 C236.240746,25.5748527 236.221037,24.5795545 236.181619,23.7714785 C236.1422,22.9634026 236.063365,22.1553387 235.94511,21.3472627 C235.826855,20.5391867 235.649475,19.8789394 235.412965,19.366501 C235.176455,18.8540626 234.870967,18.3662679 234.496493,17.9031024 C234.122019,17.4399369 233.65886,17.0851772 233.107004,16.8388125 C232.555147,16.5924479 231.904754,16.4002864 231.155805,16.2623222 C230.406857,16.124358 229.529812,16.0553769 228.524644,16.0553769 L224.829193,16.0553769 L224.829193,55.1089028 Z M255.161455,39.114991 L262.58192,39.114991 L262.58192,35.9516849 C262.58192,35.0253539 262.557284,34.2468534 262.508011,33.6161599 C262.458739,32.9854665 262.360194,32.3744914 262.212375,31.7832162 C262.064557,31.1919411 261.862541,30.7287826 261.606321,30.3937267 C261.350102,30.0586708 261.00027,29.792601 260.556813,29.5955093 C260.113357,29.3984176 259.57629,29.2998732 258.945597,29.2998732 C257.408281,29.2998732 256.393274,29.8517217 255.900545,30.9554352 C255.407816,32.0591488 255.161455,34.1482895 255.161455,37.2229201 L255.161455,39.114991 Z M259.034288,60.519043 C256.984534,60.519043 255.279716,60.2283371 253.919783,59.6469165 C252.559851,59.065496 251.500499,58.1588878 250.741696,56.9270646 C249.982893,55.6952415 249.450753,54.2564936 249.145261,52.6107779 C248.839769,50.9650622 248.687025,48.9399753 248.687025,46.5354565 L248.687025,38.5237188 C248.687025,36.0994909 248.849623,34.0546951 249.174824,32.3892702 C249.500026,30.7238453 250.046947,29.2850974 250.815605,28.0729835 C251.584262,26.8608695 252.643614,25.9690429 253.993692,25.397477 C255.343771,24.825911 257.014098,24.5401323 259.004724,24.5401323 C260.246402,24.5401323 261.350099,24.6583856 262.315848,24.8948956 C263.281597,25.1314057 264.114297,25.4566021 264.813973,25.8704947 C265.513648,26.2843873 266.109842,26.841163 266.602571,27.5408385 C267.0953,28.2405141 267.494405,28.9795969 267.799897,29.7581091 C268.105389,30.5366213 268.346823,31.4826473 268.524206,32.5962155 C268.701588,33.7097836 268.819841,34.8184078 268.878969,35.9221213 C268.938096,37.0258349 268.96766,38.3167662 268.96766,39.7949539 L268.938096,42.6330603 L255.161455,42.6330603 L255.161455,47.6884372 C255.161455,48.6738957 255.166382,49.4031241 255.176237,49.8761442 C255.186091,50.3491643 255.225509,50.9650666 255.294491,51.7238697 C255.363473,52.4826727 255.476799,53.0493029 255.634473,53.4237771 C255.792146,53.7982513 256.008944,54.1924288 256.284872,54.6063214 C256.5608,55.020214 256.920487,55.3109199 257.363944,55.4784478 C257.8074,55.6459758 258.344467,55.7297385 258.97516,55.7297385 C260.374511,55.7297385 261.325465,55.2517983 261.828048,54.2959035 C262.330632,53.3400088 262.58192,51.8963337 262.58192,49.964835 L262.58192,47.8362552 L268.908533,47.8362552 L268.908533,49.1961812 C268.908533,56.7447935 265.61715,60.519043 259.034288,60.519043 Z M279.37405,60.0164616 L272.456165,25.0131501 L278.960159,25.0131501 L283.276446,53.1872682 L287.622296,25.0131501 L293.919345,25.0131501 L287.297097,60.0164616 L279.37405,60.0164616 Z" id="Dev" fill-opacity="0.656901042" fill="#000000"></path>
        </g>
        <g id="Android-/-Production-/-App-Icon">
            <g id="Group-37" transform="translate(-1.000000, 184.000000)">
                <g id="Group-5" transform="translate(0.000000, 51.000000)" fill="#009CB4">
                    <g id="Fill-3" transform="translate(0.351171, 0.000000)">
                        <path d="M314.503929,69.2442407 C146.723277,46.1090034 -11.8001737,70.5861559 -39.5679373,123.916902 C-50.033356,144.017802 -36.5645553,195.045502 0.838464535,277 L210.729721,277 L512.648829,277 C542.686763,244.008151 561.144304,220.907875 568.021452,207.699173 C595.788256,154.368427 482.284582,92.3804441 314.503929,69.2442407 Z"></path>
                    </g>
                </g>
                <g id="Group-36" transform="translate(165.000000, 0.000000)">
                    <path d="M149.680424,5.34626601 L125.442505,3.47215271 C124.105837,3.36936946 123.563477,4.2204532 123.912549,5.42887685 L128.963999,22.8299852 L72.94224,18.4996404 L70.3217945,9.49025616 C73.3980533,9.43069951 76.4214223,9.28949261 79.4688321,9.28757143 C80.5160487,9.29141379 81.3315121,9.29525616 82.2392921,9.34040394 C83.0124438,9.35769458 83.7740558,9.41629064 84.0644685,8.85242365 C84.6597183,7.75927094 84.9270518,5.29727586 84.5183585,4.08404926 C84.3193008,3.36264532 83.8759887,3.37129064 83.1836141,3.30885222 C80.0525424,2.96496059 76.9445498,2.65661084 73.8394421,2.30599507 C68.3937236,1.63934483 62.9278109,0.892965517 57.4820924,0.115847291 C56.757984,0.00826108374 56.403142,0.0831871921 56.0540698,0.863187192 C55.2857263,2.53845813 55.1799469,5.10611823 55.6530695,6.91106897 C55.993487,8.229 56.6733604,8.35003448 58.0225292,8.63244828 C59.4476669,8.91294089 60.9218478,9.0954532 62.4017985,9.22705419 L65.2463041,18.9760936 L50.9478072,45.3558473 C47.7138409,44.0350345 44.24139,43.1628177 40.5775745,42.8794433 C21.7459473,41.4241478 5.15876767,55.59767 3.69901125,74.4339015 C2.24021645,93.2710936 16.44832,109.816315 35.2799472,111.272571 C52.8758781,112.631808 68.4543064,100.395798 71.6555772,83.4615369 L76.5954776,83.8438522 C77.8177111,88.3932118 81.8007882,91.9137783 86.7329956,92.295133 C92.9932158,92.7792709 98.5158648,88.0541232 99.000527,81.8006749 C99.1351554,80.0600837 98.8572439,78.3800099 98.2600708,76.8555517 L134.009679,40.2061182 L137.990833,53.9627438 C126.222388,58.6638768 117.469619,69.7029901 116.428172,83.1474236 C114.969378,101.984616 129.142862,118.526956 147.983144,119.983212 C166.840736,121.440429 183.418299,107.275552 184.878055,88.4383596 C186.33685,69.6021281 172.138363,53.0492217 153.280772,51.5910443 C150.540122,51.3787537 147.846593,51.5362906 145.235763,51.9551084 L133.401928,11.1357488 L149.13614,12.3691478 C154.880926,12.8119803 155.517526,5.79774384 149.680424,5.34626601 L149.680424,5.34626601 Z M140.397796,62.2247882 L148.135082,88.9052069 C148.833226,91.3143695 155.995457,89.0540985 155.297313,86.644936 L147.647535,60.2603793 C149.270769,60.0721034 150.934391,60.0211921 152.618208,60.1518325 C166.787846,61.2469064 177.418681,73.6481379 176.324344,87.7774729 C175.230008,101.906808 162.816308,112.518458 148.645708,111.422424 C134.518382,110.331192 123.886585,97.9386059 124.980922,83.8092709 C125.740611,74.0064384 131.949864,65.9163399 140.397796,62.2247882 L140.397796,62.2247882 Z M68.3023686,29.5166601 L80.6429841,71.9229163 C79.1572636,73.074665 77.9590709,74.5895172 77.1772646,76.331069 L72.2373642,75.9497143 C71.8757908,64.9029163 66.1742784,55.0088276 57.5022867,48.9571034 L68.3023686,29.5166601 Z M44.0029054,73.2562167 L53.3172669,56.5063892 C59.1832183,60.8866847 63.0730172,67.682867 63.5999912,75.2811429 L44.3192821,73.791266 C44.223119,73.6049113 44.1173396,73.4358473 44.0029054,73.2562167 L44.0029054,73.2562167 Z M131.624833,31.9882611 L93.6798206,71.2725961 C92.1623663,70.3139261 90.407389,69.6856995 88.4956659,69.5377685 C88.2581429,69.5195172 88.0196583,69.5262414 87.7811738,69.5329655 L75.1866876,26.2314384 L131.208447,30.5617833 L131.624833,31.9882611 Z M12.2777247,75.09767 C13.3720612,60.9673744 25.7944153,50.349 39.9140488,51.4402315 C42.334475,51.6275468 44.6414287,52.1712414 46.8176005,52.968532 L37.6320976,69.9248867 C34.0452125,70.0805025 31.0555006,72.8681379 30.7718193,76.5270296 C30.4650589,80.4817833 33.4297685,83.9504778 37.3811118,84.2559458 C39.9534757,84.4547882 42.3094726,83.2511675 43.7374952,81.3040493 L63.0172426,82.7939261 C60.235243,94.982867 48.8024076,103.705995 35.9434729,102.710823 C21.8228778,101.620552 11.1853115,89.2020296 12.2777247,75.09767 L12.2777247,75.09767 Z" id="Fill-6" fill="#153D8A"></path>
                    <path d="M128.975827,155.426431 L139.262398,179.519017 C139.787449,180.789879 140.564447,181.380643 141.711673,181.380643 C142.89448,181.380643 143.719559,180.772589 144.234994,179.521899 L154.514833,155.426431 L150.183645,155.426431 L141.708788,175.568106 L133.278166,155.426431 L128.975827,155.426431 Z" id="Fill-8" fill="#FFFFFF"></path>
                    <path d="M113.97707,154.835956 C108.407301,154.835956 104.516541,158.721547 104.516541,164.286251 L104.516541,181.372286 C106.982164,181.254133 108.44192,179.799798 108.44192,177.431941 L108.44192,164.057631 C108.44192,160.757039 110.718101,158.451621 113.97707,158.451621 C115.571455,158.451621 116.397496,158.880044 117.464907,159.832951 L119.793978,157.053961 C118.069773,155.482433 116.362878,154.835956 113.97707,154.835956" id="Fill-10" fill="#FFFFFF"></path>
                    <path d="M97.8777262,154.835956 C92.3069957,154.835956 88.4162351,158.721547 88.4162351,164.286251 L88.4162351,181.372286 C90.881858,181.254133 92.342576,179.799798 92.342576,177.431941 L92.342576,164.057631 C92.342576,160.757039 94.6187575,158.451621 97.8777262,158.451621 C99.472111,158.451621 100.298152,158.880044 101.364602,159.832951 L103.694634,157.053961 C101.970429,155.482433 100.262572,154.835956 97.8777262,154.835956" id="Fill-12" fill="#FFFFFF"></path>
                    <path d="M168.079221,177.764882 C162.787363,177.764882 158.64177,173.522911 158.64177,168.108059 C158.64177,162.693207 162.787363,158.452197 168.079221,158.452197 C173.414351,158.452197 177.593601,162.693207 177.593601,168.108059 C177.593601,173.522911 173.414351,177.764882 168.079221,177.764882 M168.079221,154.835571 C160.461177,154.835571 154.716391,160.541483 154.716391,168.108059 C154.716391,175.674635 160.461177,181.380547 168.079221,181.380547 C171.324727,181.380547 174.508688,180.160596 177.041625,177.946433 L177.497438,177.547788 L177.589755,178.146236 C177.886899,180.074143 179.345694,181.263355 181.518981,181.371901 L181.518981,168.108059 C181.518981,160.665399 175.615526,154.835571 168.079221,154.835571" id="Fill-14" fill="#FFFFFF"></path>
                    <path d="M69.8153033,177.764882 C64.5234458,177.764882 60.377853,173.522911 60.377853,168.108059 C60.377853,162.693207 64.5234458,158.452197 69.8153033,158.452197 C75.1504341,158.452197 79.3296841,162.693207 79.3296841,168.108059 C79.3296841,173.522911 75.1504341,177.764882 69.8153033,177.764882 M69.8153033,154.835571 C62.1972595,154.835571 56.4524737,160.541483 56.4524737,168.108059 C56.4524737,175.674635 62.1972595,181.380547 69.8153033,181.380547 C73.0608092,181.380547 76.2447706,180.160596 78.7777077,177.946433 L79.30372,177.487271 L79.3296841,178.18466 C79.3979599,180.039562 80.9259922,181.267197 83.2550634,181.372862 L83.2550634,168.108059 C83.2550634,160.665399 77.3516084,154.835571 69.8153033,154.835571" id="Fill-16" fill="#FFFFFF"></path>
                    <path d="M122.360861,155.426431 L122.360861,181.371998 C124.826484,181.253845 126.287202,179.79951 126.287202,177.432613 L126.287202,155.426431 L122.360861,155.426431 Z" id="Fill-18" fill="#FFFFFF"></path>
                    <path d="M124.332494,146.84403 C122.912164,146.84403 121.757245,147.9977 121.757245,149.415532 C121.757245,150.769005 122.936205,151.912108 124.332494,151.912108 C125.686471,151.912108 126.830812,150.769005 126.830812,149.415532 C126.830812,148.021714 125.686471,146.84403 124.332494,146.84403" id="Fill-20" fill="#FFFFFF"></path>
                    <path d="M29.5165057,168.906214 C31.7292195,169.471042 33.7438373,170.072372 35.5401647,170.68715 C36.2835057,172.124195 36.9470314,173.46614 37.610557,174.850352 C38.8424068,174.884933 40.1040672,174.892618 41.3330321,174.795599 C40.9801134,174.035771 40.626233,173.324933 40.2463886,172.544933 C41.4763151,173.110722 42.6177716,173.688998 43.7178779,174.481485 C46.4691052,173.886879 46.4623738,172.96183 45.4853563,172.062717 C41.7051834,168.583456 32.1282966,166.015796 27.4182261,164.961067 C27.8923103,165.839047 29.1991674,168.289515 29.5165057,168.906214" id="Fill-22" fill="#FFFFFF"></path>
                    <path d="M5.56111424,166.564773 C6.2496423,166.413961 7.04971961,166.296768 8.13732469,166.225685 C8.74315246,165.106596 9.36532796,163.996153 10.0009663,162.893394 C6.69776252,162.981768 5.04952635,163.534108 4.30522366,163.985586 C3.49168352,164.481251 3.85806508,165.347704 5.56111424,166.564773" id="Fill-24" fill="#FFFFFF"></path>
                    <path d="M47.4770872,173.501394 C46.340439,178.641517 27.3616822,175.210286 24.1469485,174.565729 C20.0907873,173.753069 1.30724169,169.068266 2.52659027,164.196148 C2.15540056,164.972305 1.88518215,166.71866 1.78421085,167.451591 C1.67746977,168.225828 1.95634287,169.113414 2.22848455,169.531271 C2.96413255,170.660926 4.49985785,171.668586 6.46831728,172.628217 C5.03356327,175.605089 0.722569815,184.941074 0.577363477,189.693118 C0.518703963,191.616222 0.978363761,191.716123 2.3188779,190.870803 C2.7083386,190.624892 3.39878993,190.044695 3.79402043,189.661419 C4.64506419,184.650975 8.10309062,177.222724 9.63785429,173.992256 C11.5591938,174.731911 13.5016892,175.409128 15.4797649,175.98068 C13.6988236,179.015187 8.47428033,187.460704 4.38927025,191.023537 C2.22463802,192.911099 1.18511451,193.017724 0.414847775,192.660384 C0.694682505,192.998512 2.15732383,193.814054 2.64006278,194.038833 C3.53341832,194.455729 4.22002312,194.604621 5.05279589,194.280901 C9.29551352,192.624842 16.2654177,181.700039 18.9666403,176.92398 C22.5977603,177.91531 25.8663454,178.556985 29.7878781,179.05265 C31.8726949,182.264867 36.865485,190.105212 40.8860658,193.327995 C42.4698727,194.596936 43.3334177,194.664177 44.4681427,194.114719 C45.557671,193.587355 46.1567674,193.152207 46.7000891,192.693044 C46.3202447,192.797749 45.6769133,192.809276 44.5825768,192.136862 C40.9014519,189.878512 35.3326446,181.188044 34.2460012,179.560803 C36.1288754,179.740433 37.9675146,179.777897 39.8638517,179.697207 C41.154361,182.706739 42.442947,185.923759 43.2074439,189.113882 C43.7546122,189.683512 44.5152626,190.499054 45.6884529,191.181074 C46.3260145,191.551862 46.5241106,191.376074 46.5616142,190.688291 C46.7279764,187.702773 44.2498524,181.647207 43.3343793,179.366764 C45.3134167,178.958512 46.3058202,178.187158 46.7558637,176.954719 C47.0241589,176.221788 47.4953582,174.384177 47.4770872,173.501394" id="Fill-26" fill="#FFFFFF"></path>
                    <path d="M17.2697455,154.168537 C14.015585,158.653537 11.2278156,163.378685 8.64775863,168.2777 C9.6892054,168.776246 10.7662325,169.220039 11.8442213,169.632133 C12.4538956,168.480384 13.0222197,167.408365 13.6636279,166.273906 C15.2868616,166.379571 17.0177981,166.559202 18.8122023,166.805113 C19.3324448,165.758069 19.8392246,164.705261 20.3296566,163.643808 C18.6689192,163.400778 17.0581866,163.213463 15.5282311,163.084744 C16.5725628,161.35568 17.6563213,159.64967 18.7929696,157.979202 C19.4430324,159.509424 20.127714,161.025236 20.8383596,162.528562 C21.4691897,161.126099 22.0721326,159.712108 22.6366102,158.280828 C21.0566499,154.609448 18.9497155,149.848759 18.2236839,145.536665 C18.0275111,144.369547 17.8361464,142.504079 18.9324062,141.753857 C18.1631011,142.024744 16.7706588,142.83164 16.1657927,143.283118 C15.4936124,143.783586 15.1387704,144.620261 15.1089598,145.3993 C15.0233746,147.639399 16.19368,151.177256 17.2697455,154.168537" id="Fill-28" fill="#FFFFFF"></path>
                    <path d="M17.9168273,171.595197 C18.9255786,171.893941 20.2814788,172.259926 21.3286954,172.492389 C22.138389,170.970813 22.8653823,169.53569 23.5866059,168.049655 C24.5770862,169.949704 25.553142,171.742167 26.6128598,173.604754 C28.0562685,173.864113 29.5285261,174.098498 30.9825128,174.287734 C29.83144,172.338695 26.3830299,166.197635 25.4108206,164.113153 C26.3561042,161.969113 27.2369586,159.796256 28.0043404,157.582094 C29.388128,159.739581 30.8421146,162.114163 32.3547607,164.783645 C33.9241431,165.222635 35.4723697,165.695246 37.0109799,166.234138 C34.6242108,161.819261 32.0787725,157.539828 29.2669624,153.380468 C29.5871856,152.059655 29.8708669,150.673522 29.7920131,149.307562 C29.7439316,148.491059 29.4823678,147.620764 28.7784537,147.092438 C28.1014652,146.584286 26.6494018,145.782192 25.9954925,145.549729 C26.8801933,146.271133 26.8763468,147.668793 26.8023012,148.697586 C26.4676535,153.355493 22.7519098,162.778892 17.9168273,171.595197" id="Fill-30" fill="#FFFFFF"></path>
                    <path d="M20.7777768,149.77364 C20.9595251,150.369207 21.8798063,152.86002 22.1182909,153.440217 C22.7193105,152.689034 23.2760951,152.032951 23.7915295,151.46332 C24.0569398,151.818739 24.3271582,152.187606 24.604108,152.569921 C24.9127917,151.471966 25.4205331,149.447039 25.4301494,148.304897 C25.4464971,146.426941 25.1070412,146.080167 23.4972703,147.223271 C22.4837108,147.941793 21.606703,148.856276 20.7777768,149.77364" id="Fill-32" fill="#FFFFFF"></path>
                    <path d="M19.9142318,146.791966 C20.1892584,147.077261 20.4767862,147.390414 20.7777768,147.728542 C21.5566982,146.954305 22.3942791,146.192557 23.3587954,145.656547 C22.569296,144.797778 21.726907,143.918837 20.735465,143.28869 C19.7805651,142.682557 19.4526488,142.63933 19.4939989,144.171473 C19.5151548,144.909207 19.7430614,146.075365 19.9142318,146.791966" id="Fill-34" fill="#FFFFFF"></path>
                </g>
            </g>
        </g>
        <g id="Staging" transform="translate(0.000000, 322.000000)">
            <polygon id="Rectangle" fill="#E7A10F" points="0 0 512 0 512 190 0 190"></polygon>
            <path d="M181.981987,72.6478054 C177.564376,72.6478054 174.198376,71.284496 171.883885,68.5578363 C169.569395,65.8311767 168.27478,62.1005704 168,57.3659055 L174.531268,55.5904151 C174.99628,63.1151503 177.479828,66.8774615 181.981987,66.8774615 C183.863171,66.8774615 185.295174,66.3543311 186.27804,65.3080547 C187.260906,64.2617783 187.752331,62.7240922 187.752331,60.6949501 C187.752331,59.5746946 187.620228,58.5495705 187.356016,57.619547 C187.091805,56.6895236 186.658505,55.8017872 186.056104,54.9563114 C185.453702,54.1108355 184.883014,53.4080442 184.344024,52.8479165 C183.805033,52.2877887 183.038832,51.5427243 182.045398,50.6127008 L173.231356,42.7815198 C171.455856,41.1751156 170.161241,39.4789051 169.34747,37.6928374 C168.5337,35.9067696 168.126821,33.7244178 168.126821,31.1457164 C168.126821,27.341075 169.231207,24.3766697 171.440013,22.2524116 C173.648818,20.1281535 176.666065,19.0449038 180.491843,19.00263 C184.698086,18.9392193 187.847436,20.022469 189.939989,22.2524116 C192.032542,24.4823542 193.290168,27.9329008 193.712906,32.6041549 L187.530395,34.316235 C187.445847,33.1748426 187.329596,32.1602868 187.181638,31.2725371 C187.03368,30.3847875 186.790609,29.491767 186.452418,28.5934489 C186.114228,27.6951308 185.702065,26.9659188 185.215916,26.405791 C184.729768,25.8456632 184.085102,25.4017951 183.2819,25.0741732 C182.478698,24.7465513 181.548688,24.6144477 180.491843,24.6778583 C176.623791,24.952638 174.689794,26.8760667 174.689794,30.4482023 C174.689794,31.9911957 174.954002,33.2805271 175.482424,34.316235 C176.010846,35.3519429 176.898583,36.4404768 178.14566,37.5818692 L187.023112,45.4130503 C189.327034,47.4844661 191.160632,49.703807 192.523962,52.0711394 C193.887292,54.4384718 194.568946,57.1228174 194.568946,60.1242568 C194.568946,63.9711719 193.406434,67.0201235 191.081376,69.271203 C188.756317,71.5222825 185.723218,72.6478054 181.981987,72.6478054 Z M209.724025,72.6161002 C206.870544,72.6161002 204.815012,71.8657516 203.557367,70.365032 C202.299721,68.8643123 201.649771,66.6238349 201.607498,63.6435324 L201.607498,39.1671285 L197.676054,39.1671285 L197.676054,34.5381713 L201.607498,34.5381713 L201.607498,23.599882 L208.550933,23.599882 L208.550933,34.5381713 L214.574919,34.5381713 L214.574919,39.1671285 L208.550933,39.1671285 L208.550933,63.1679546 C208.550933,64.6686743 208.78872,65.7255033 209.2643,66.3384733 C209.73988,66.9514433 210.643469,67.2579237 211.975094,67.2579237 C212.968528,67.2579237 213.824559,67.2050822 214.543214,67.0993978 L214.543214,72.235638 C212.514072,72.4892807 210.907692,72.6161002 209.724025,72.6161002 Z M229.222715,66.5921148 C230.110465,66.5921148 230.982349,66.2433612 231.838393,65.5458436 C232.694437,64.848326 233.333819,64.1613872 233.756557,63.4850065 L233.756557,52.8637691 C231.325814,54.2376673 229.719433,55.2522232 228.937368,55.907467 C226.908226,57.5561449 225.89367,59.5112785 225.89367,61.7729264 C225.89367,63.294783 226.179014,64.4784315 226.74971,65.3239073 C227.320407,66.1693832 228.144733,66.5921148 229.222715,66.5921148 Z M226.464364,72.6161002 C224.329537,72.6161002 222.538212,71.733648 221.090335,69.9687171 C219.642457,68.2037863 218.918529,66.1799588 218.918529,63.8971739 C218.918529,62.1216746 219.209157,60.5100104 219.790422,59.062133 C220.371687,57.6142556 220.989932,56.4464596 221.645175,55.5587099 C222.300419,54.6709602 223.43651,53.7462349 225.053483,52.7845061 C226.670456,51.8227773 227.922798,51.1411226 228.810548,50.7395216 C229.698297,50.3379205 231.251836,49.6826866 233.47121,48.7738 C233.598031,48.7103893 233.693146,48.6681162 233.756557,48.6469793 L233.756557,45.9520384 C233.756557,43.5212953 233.508202,41.7933799 233.011485,40.7682404 C232.514768,39.743101 231.505496,39.2305389 229.983639,39.2305389 C227.362664,39.2305389 226.052196,41.0060116 226.052196,44.5570102 L226.052196,46.4276162 L219.172171,46.1739747 C219.172171,45.7935106 219.193307,45.3285058 219.235581,44.7789465 C219.44695,41.0377158 220.493211,38.3110971 222.374395,36.5990084 C224.255578,34.8869198 226.950492,34.0308883 230.459217,34.0308883 C234.073627,34.0308883 236.683994,35.0190234 238.290398,36.9953233 C239.896802,38.9716231 240.699992,41.9465967 240.699992,45.9203332 L240.699992,63.0728391 C240.699992,65.9051832 240.911358,68.9065775 241.334096,72.077112 L234.993059,72.077112 C234.549184,69.9845593 234.242704,68.1351085 234.073608,66.5287044 C233.545186,68.2196561 232.641597,69.6569435 231.362815,70.8406098 C230.084033,72.024276 228.451232,72.6161002 226.464364,72.6161002 Z M257.281805,55.6855307 C259.120715,55.6855307 260.330784,55.0355808 260.912049,53.7356617 C261.493313,52.4357425 261.783941,50.3168004 261.783941,47.3787718 C261.783941,46.2162425 261.757521,45.2439598 261.704678,44.4618947 C261.651836,43.6798295 261.535585,42.9083443 261.355921,42.1474161 C261.176258,41.3864878 260.927903,40.7840953 260.61085,40.3402204 C260.293796,39.8963456 259.86578,39.5370237 259.326789,39.2622441 C258.787799,38.9874644 258.137849,38.8500767 257.37692,38.8500767 C255.559147,38.8500767 254.33851,39.5264472 253.714971,40.8792086 C253.091433,42.23197 252.779668,44.3984694 252.779668,47.3787718 C252.779668,48.4144797 252.811373,49.3127844 252.874784,50.0737127 C252.938195,50.8346409 253.065014,51.5849895 253.255246,52.3247809 C253.445478,53.0645723 253.704401,53.6669648 254.032023,54.1319765 C254.359645,54.5969882 254.792945,54.9721625 255.331936,55.2575106 C255.870927,55.5428587 256.520877,55.6855307 257.281805,55.6855307 Z M258.96218,78.2279182 C260.970185,78.2279182 262.45503,77.9320061 263.416759,77.340173 C264.378487,76.7483399 264.859344,75.8077621 264.859344,74.5184114 C264.859344,73.3347452 264.494738,72.4470088 263.765516,71.8551757 C263.036293,71.2633426 261.688836,70.8723159 259.723104,70.6820838 L253.794234,70.206506 C253.181264,70.7137915 252.568304,71.4060145 251.955334,72.2831957 C251.342364,73.1603769 251.035883,74.0956706 251.035883,75.0891047 C251.035883,75.850033 251.215544,76.4418572 251.574871,76.8645952 C251.934199,77.2873331 252.7004,77.6202342 253.873497,77.8633085 C255.046595,78.1063829 256.742806,78.2279182 258.96218,78.2279182 Z M259.057295,83.7129154 C257.704534,83.7129154 256.520886,83.6917789 255.506314,83.6495051 C254.491743,83.6072313 253.413778,83.5174008 252.272385,83.380011 C251.130993,83.2426212 250.163995,83.0418237 249.371361,82.7776124 C248.578727,82.5134012 247.844231,82.1699318 247.16785,81.7471939 C246.49147,81.324456 245.984192,80.7907573 245.646002,80.146082 C245.307811,79.5014066 245.138719,78.7457739 245.138719,77.8791611 C245.138719,75.9345667 245.651281,74.2542086 246.67642,72.8380365 C247.70156,71.4218644 248.996175,70.2910574 250.560305,69.4455816 C249.376639,69.0862543 248.47305,68.5419874 247.849512,67.8127645 C247.225974,67.0835415 246.914209,66.2750674 246.914209,65.3873177 C246.914209,64.097967 247.241826,62.96716 247.89707,61.9948627 C248.552314,61.0225655 249.619711,59.8917585 251.099294,58.6024078 C249.619711,57.4610154 248.525893,56.0290121 247.817807,54.306355 C247.109721,52.583698 246.755683,50.2745267 246.755683,47.3787718 C246.755683,43.0034342 247.643419,39.6849912 249.418919,37.4233433 C251.194418,35.1616953 253.815354,34.0308883 257.281805,34.0308883 C261.107583,34.0308883 263.686246,35.404766 265.01787,38.1525626 C265.334924,37.7086877 265.97959,37.0798745 266.951887,36.266104 C267.924184,35.4523335 268.970445,34.7918153 270.0907,34.2845298 L271.168677,33.808952 L272.880757,38.3110885 C272.035281,38.5013206 270.846348,38.8764949 269.313923,39.4366226 C267.781498,39.9967504 266.846205,40.4141978 266.508014,40.6889775 C266.825068,41.4499058 267.099843,42.5225872 267.332349,43.9070539 C267.564855,45.2915206 267.681106,46.5227264 267.681106,47.6007081 C267.681106,49.5875764 267.506729,51.3471966 267.157971,52.8796217 C266.809212,54.4120467 266.243808,55.7700719 265.461743,56.9537381 C264.679678,58.1374043 263.601712,59.0409931 262.227814,59.6645315 C260.853916,60.28807 259.205263,60.5998345 257.281805,60.5998345 C256.922478,60.5998345 256.277812,60.5311407 255.347789,60.3937508 C254.417765,60.256361 253.878782,60.1665305 253.730824,60.1242568 C253.709687,60.1665305 253.614573,60.3250549 253.445477,60.5998345 C253.276382,60.8746142 253.160131,61.0754117 253.09672,61.2022331 C253.03331,61.3290545 252.943479,61.5139995 252.827226,61.7570739 C252.710973,62.0001482 252.626427,62.2220822 252.573585,62.4228828 C252.520743,62.6236833 252.494322,62.8191966 252.494322,63.0094287 C252.494322,63.4955773 252.742677,63.8654675 253.239394,64.1191102 C253.736111,64.372753 254.534017,64.5524139 255.633135,64.6580984 C255.73882,64.6792353 256.726955,64.7743499 258.59757,64.9434451 C260.468186,65.1125403 261.424616,65.1970866 261.46689,65.1970866 C267.258399,65.7466459 270.154111,68.7903133 270.154111,74.3281803 C270.154111,77.6889468 269.26109,80.0932328 267.475022,81.5411102 C265.688955,82.9889876 262.883074,83.7129154 259.057295,83.7129154 Z M276.08298,28.9897637 L276.08298,21.6975708 L283.058121,21.6975708 L283.058121,28.9897637 L276.08298,28.9897637 Z M276.08298,72.077112 L276.08298,34.5381713 L283.026416,34.5381713 L283.026416,72.077112 L276.08298,72.077112 Z M290.477135,72.077112 L290.477135,34.5381713 L297.420571,34.5381713 L297.420571,38.2476781 C300.379736,35.4364709 303.433972,34.0308883 306.58337,34.0308883 C307.640215,34.0308883 308.554372,34.2528224 309.325868,34.6966972 C310.097365,35.1405721 310.683905,35.7482487 311.085506,36.5197455 C311.487107,37.2912422 311.772451,38.0997164 311.941546,38.9451922 C312.110641,39.7906681 312.195188,40.7101093 312.195188,41.7035434 L312.195188,72.077112 L305.251752,72.077112 L305.251752,43.7326754 C305.251752,42.2953664 305.040386,41.2279691 304.617648,40.5304515 C304.19491,39.832934 303.412857,39.4841804 302.271464,39.4841804 C300.876429,39.4841804 299.259481,40.2556656 297.420571,41.798659 L297.420571,72.077112 L290.477135,72.077112 Z M328.903821,55.6855307 C330.742731,55.6855307 331.9528,55.0355808 332.534065,53.7356617 C333.11533,52.4357425 333.405958,50.3168004 333.405958,47.3787718 C333.405958,46.2162425 333.379537,45.2439598 333.326695,44.4618947 C333.273852,43.6798295 333.157601,42.9083443 332.977937,42.1474161 C332.798274,41.3864878 332.549919,40.7840953 332.232866,40.3402204 C331.915812,39.8963456 331.487796,39.5370237 330.948806,39.2622441 C330.409815,38.9874644 329.759865,38.8500767 328.998937,38.8500767 C327.181163,38.8500767 325.960526,39.5264472 325.336988,40.8792086 C324.713449,42.23197 324.401685,44.3984694 324.401685,47.3787718 C324.401685,48.4144797 324.433389,49.3127844 324.4968,50.0737127 C324.560211,50.8346409 324.68703,51.5849895 324.877262,52.3247809 C325.067494,53.0645723 325.326418,53.6669648 325.654039,54.1319765 C325.981661,54.5969882 326.414961,54.9721625 326.953952,55.2575106 C327.492943,55.5428587 328.142893,55.6855307 328.903821,55.6855307 Z M330.584196,78.2279182 C332.592201,78.2279182 334.077046,77.9320061 335.038775,77.340173 C336.000503,76.7483399 336.481361,75.8077621 336.481361,74.5184114 C336.481361,73.3347452 336.116755,72.4470088 335.387532,71.8551757 C334.658309,71.2633426 333.310852,70.8723159 331.34512,70.6820838 L325.416251,70.206506 C324.803281,70.7137915 324.19032,71.4060145 323.57735,72.2831957 C322.96438,73.1603769 322.657899,74.0956706 322.657899,75.0891047 C322.657899,75.850033 322.83756,76.4418572 323.196887,76.8645952 C323.556215,77.2873331 324.322416,77.6202342 325.495514,77.8633085 C326.668611,78.1063829 328.364822,78.2279182 330.584196,78.2279182 Z M330.679311,83.7129154 C329.32655,83.7129154 328.142902,83.6917789 327.128331,83.6495051 C326.11376,83.6072313 325.035794,83.5174008 323.894402,83.380011 C322.753009,83.2426212 321.786011,83.0418237 320.993377,82.7776124 C320.200743,82.5134012 319.466247,82.1699318 318.789867,81.7471939 C318.113486,81.324456 317.606208,80.7907573 317.268018,80.146082 C316.929827,79.5014066 316.760735,78.7457739 316.760735,77.8791611 C316.760735,75.9345667 317.273297,74.2542086 318.298436,72.8380365 C319.323576,71.4218644 320.618191,70.2910574 322.182322,69.4455816 C320.998655,69.0862543 320.095067,68.5419874 319.471528,67.8127645 C318.84799,67.0835415 318.536225,66.2750674 318.536225,65.3873177 C318.536225,64.097967 318.863842,62.96716 319.519086,61.9948627 C320.17433,61.0225655 321.241727,59.8917585 322.72131,58.6024078 C321.241727,57.4610154 320.147909,56.0290121 319.439823,54.306355 C318.731737,52.583698 318.377699,50.2745267 318.377699,47.3787718 C318.377699,43.0034342 319.265435,39.6849912 321.040935,37.4233433 C322.816434,35.1616953 325.43737,34.0308883 328.903821,34.0308883 C332.729599,34.0308883 335.308262,35.404766 336.639887,38.1525626 C336.95694,37.7086877 337.601606,37.0798745 338.573903,36.266104 C339.5462,35.4523335 340.592461,34.7918153 341.712716,34.2845298 L342.790693,33.808952 L344.502773,38.3110885 C343.657297,38.5013206 342.468364,38.8764949 340.935939,39.4366226 C339.403514,39.9967504 338.468221,40.4141978 338.13003,40.6889775 C338.447084,41.4499058 338.721859,42.5225872 338.954365,43.9070539 C339.186871,45.2915206 339.303122,46.5227264 339.303122,47.6007081 C339.303122,49.5875764 339.128745,51.3471966 338.779987,52.8796217 C338.431228,54.4120467 337.865824,55.7700719 337.083759,56.9537381 C336.301694,58.1374043 335.223728,59.0409931 333.84983,59.6645315 C332.475932,60.28807 330.827279,60.5998345 328.903821,60.5998345 C328.544494,60.5998345 327.899828,60.5311407 326.969805,60.3937508 C326.039781,60.256361 325.500798,60.1665305 325.35284,60.1242568 C325.331703,60.1665305 325.236589,60.3250549 325.067493,60.5998345 C324.898398,60.8746142 324.782147,61.0754117 324.718736,61.2022331 C324.655326,61.3290545 324.565495,61.5139995 324.449242,61.7570739 C324.332989,62.0001482 324.248443,62.2220822 324.195601,62.4228828 C324.142759,62.6236833 324.116338,62.8191966 324.116338,63.0094287 C324.116338,63.4955773 324.364693,63.8654675 324.86141,64.1191102 C325.358127,64.372753 326.156033,64.5524139 327.255151,64.6580984 C327.360836,64.6792353 328.348971,64.7743499 330.219586,64.9434451 C332.090202,65.1125403 333.046632,65.1970866 333.088906,65.1970866 C338.880415,65.7466459 341.776127,68.7903133 341.776127,74.3281803 C341.776127,77.6889468 340.883106,80.0932328 339.097038,81.5411102 C337.310971,82.9889876 334.50509,83.7129154 330.679311,83.7129154 Z" fill-opacity="0.656901042" fill="#000000"></path>
        </g>
    </g>
</svg>