<?xml version="1.0" encoding="UTF-8" standalone="no"?>
<svg width="100px" height="72px" viewBox="0 0 100 72" version="1.1" xmlns="http://www.w3.org/2000/svg" xmlns:xlink="http://www.w3.org/1999/xlink">
    <!-- Generator: Sketch 50.2 (55047) - http://www.bohemiancoding.com/sketch -->
    <title>SpotCircle</title>
    <desc>Created with Sketch.</desc>
    <defs></defs>
    <g id="SpotCircle" stroke="none" stroke-width="1" fill="none" fill-rule="evenodd">
        <path d="M8.43769499e-14,38 L8.43769499e-14,36.2840432 C2.66026292,34.7925861 4.53505595,33.5154078 5.62437909,32.4525084 C7.8360373,30.2944982 9.55162805,27.5954587 10.5507838,24.5155733 C10.8531607,23.5835692 11.1720878,22.755812 11.5075853,22.0323081 C17.5402463,9.02281258 30.7164278,0 46,0 C61.2824091,0 74.4577481,9.02143927 80.4910372,22.0293379 C80.8269211,22.7535107 81.1462032,23.5821208 81.4488836,24.5151685 C84.0570817,32.5552073 91.5474903,38 100,38 L8.43769499e-14,38 Z" id="Combined-Shape" fill="#FFFFFF" opacity="0.900000036"></path>
        <g id="Bike-counter" transform="translate(12.000000, 4.000000)">
            <circle id="Oval" fill="#CC0000" fill-rule="evenodd" cx="34" cy="34" r="34"></circle>
            <text id="2" font-family="Roboto-Bold, Roboto" font-size="30" font-weight="bold"></text>
            <g id="Bike-icon" transform="translate(17.000000, 37.000000)" fill="#FFFFFF" fill-rule="evenodd" stroke-width="1">
                <g id="Outlined">
                    <path d="M22.5413117,1.85384047 L20.7848831,1.86257495 C20.3771465,1.86460257 20.0449842,1.53223119 20.0429777,1.12020268 C20.0409712,0.708174182 20.3698804,0.372515376 20.7776169,0.370487757 L23.0435532,0.35921956 C23.350251,0.357694392 23.6259408,0.547943255 23.7361532,0.837171125 L28.5795919,13.5476974 C28.7261127,13.9322087 28.5364303,14.3639455 28.1559244,14.5120087 C27.7754185,14.6600718 27.3481789,14.4683928 27.2016581,14.0838815 L22.5413117,1.85384047 Z" id="Line" fill-rule="nonzero"></path>
                    <path d="M16.5448519,13.5387125 C16.6962833,13.921276 16.5121442,14.3554566 16.1335658,14.508482 C15.7549873,14.6615073 15.3253295,14.47543 15.1738981,14.0928665 L10.988994,3.52047723 L9.84375,3.52047723 C9.43600852,3.52047723 9.10546875,3.18645808 9.10546875,2.77442459 C9.10546875,2.3623911 9.43600852,2.02837196 9.84375,2.02837196 L11.3545238,2.02837196 C11.397629,2.02076076 11.4422545,2.01687863 11.4881379,2.01711495 L13.6756379,2.02838165 C14.6574947,2.0334387 14.6537446,3.52047723 13.671875,3.52047723 L12.5793005,3.52047723 L16.5448519,13.5387125 Z" id="Line" fill-rule="nonzero"></path>
                    <path d="M7.109375,20.6407895 C3.37929558,20.6407895 0.35546875,17.5851329 0.35546875,13.8157895 C0.35546875,10.0464461 3.37929558,6.99078947 7.109375,6.99078947 C10.8394544,6.99078947 13.8632812,10.0464461 13.8632812,13.8157895 C13.8632812,17.5851329 10.8394544,20.6407895 7.109375,20.6407895 Z M7.109375,19.1486842 C10.0239715,19.1486842 12.3867187,16.7610659 12.3867187,13.8157895 C12.3867187,10.870513 10.0239715,8.48289474 7.109375,8.48289474 C4.19477853,8.48289474 1.83203125,10.870513 1.83203125,13.8157895 C1.83203125,16.7610659 4.19477853,19.1486842 7.109375,19.1486842 Z" id="Oval" fill-rule="nonzero"></path>
                    <path d="M27.890625,20.6407895 C24.1605456,20.6407895 21.1367187,17.5851329 21.1367187,13.8157895 C21.1367187,10.0464461 24.1605456,6.99078947 27.890625,6.99078947 C31.6207044,6.99078947 34.6445312,10.0464461 34.6445312,13.8157895 C34.6445312,17.5851329 31.6207044,20.6407895 27.890625,20.6407895 Z M27.890625,19.1486842 C30.8052215,19.1486842 33.1679687,16.7610659 33.1679687,13.8157895 C33.1679687,10.870513 30.8052215,8.48289474 27.890625,8.48289474 C24.9760285,8.48289474 22.6132812,10.870513 22.6132812,13.8157895 C22.6132812,16.7610659 24.9760285,19.1486842 27.890625,19.1486842 Z" id="Oval-Copy" fill-rule="nonzero"></path>
                    <path d="M8.48886613,13.0697368 L15.9475051,13.0697368 L23.700134,4.94900738 L23.3369311,3.96721408 L14.8312811,10.5400012 C14.4457138,10.8379504 13.8854077,10.6852908 13.7003164,10.2318613 L12.4239273,7.10501261 L8.48886613,13.0697368 Z M23.2312181,2.17052514 C23.6249577,1.86626072 24.1976604,2.03274101 24.3712265,2.50191685 L25.2462277,4.86717986 C25.3458301,5.13642047 25.2835097,5.43953731 25.0860204,5.64640357 L16.7924373,14.3337721 C16.6532988,14.4795171 16.461507,14.5618421 16.2611052,14.5618421 L7.109375,14.5618421 C6.51971317,14.5618421 6.16800234,13.8977467 6.49508787,13.4019539 L11.9638379,5.11248025 C12.2915833,4.61568719 13.0353108,4.68986746 13.2606207,5.24182291 L14.698483,8.76424238 L23.2312181,2.17052514 Z" id="Rectangle-2" fill-rule="nonzero"></path>
                </g>
            </g>
        </g>
    </g>
</svg>